<svg xmlns="http://www.w3.org/2000/svg" xmlns:xlink="http://www.w3.org/1999/xlink" width="779.564" height="223.422" viewBox="0 0 206.26 59.114"><defs><linearGradient id="b"><stop offset="0" stop-color="#727272"/><stop offset="1" stop-color="#727272" stop-opacity="0"/></linearGradient><linearGradient id="a"><stop offset="0" stop-color="#f4f4f4"/><stop offset="1" stop-color="#c2c2c2"/></linearGradient><linearGradient xlink:href="#a" id="e" gradientUnits="userSpaceOnUse" x1="396.607" y1="476.984" x2="396.692" y2="516.984"/><linearGradient xlink:href="#b" id="c" x1="53.094" y1="127.736" x2="33.413" y2="145.501" gradientUnits="userSpaceOnUse"/><linearGradient gradientTransform="matrix(-1 0 0 1 209.966 0)" xlink:href="#b" id="d" x1="53.094" y1="127.736" x2="33.413" y2="145.501" gradientUnits="userSpaceOnUse"/></defs><path d="M72.655 9.674C62.418 3.664 50.448.362 36.181.65 22.517.83 6.779 2.147.91 10.052-.893 13.589 6.725 8 11.612 11.28c1.82 1.31 2.614 2.266 3.685 3.402 1.629 2.03 1.804 1.651 5.103 3.685 1.613 3.196 1.026 3.603 1.512 5.387 1.192 2.84 3.925 3.642 6.945 6.07 2.414 6 7.687 8.569 11.576 12.64 2.611 1.182 5.066.718 7.56.66 1.865.439 3.741.82 5.669.946 2.676-.554 4.688-2.186 6.898-3.496 3.638-.502 5.768-.062 8.505 0z" fill="#b6aeae" stroke="#333" stroke-width="1.265" stroke-linejoin="round"/><path d="M13.933 6.225c21.732-3.558 33.442.901 45.357 5.197" opacity=".484" fill="none" stroke="#333" stroke-linecap="round"/><path d="M59.956 125.115c.809 5.852-.915 8.861-3.98 10.965.985 18.15-9.575 21.4-13.402 11.035-1.498-4.058-10.057-4.665-13.14-9.201-3.61-5.311-1.635-11.472-12.626-17.52 12.506-2.508 26.628-2.23 43.148 4.721z" opacity=".596" fill="url(#c)" transform="translate(-1.853 -113.315)"/><path d="M58.26 17.327c-.986 3.625-4.152 5.32-4.441 8.41.609 4.568 2.625 4.291 2.74 6.52" opacity=".684" fill="none" stroke="#333" stroke-linecap="round"/><path d="M61.08 5.658C39.402.066 21.7 3.154 16.593 4.094M59.946 18.604c-.401 2.115-3.923 4.758-4.678 7.04" opacity=".676" fill="none" stroke="#f4f4f4" stroke-width="1.9" stroke-linecap="round"/><path d="M52.603 42.767c2.444-2.347 6.394-2.343 8.419-5.68 4.068-2.223 1.652-8.735 2.405-12.895l4.744 1.002-4.009 13.697c-4.277 1.234-10.13 5.175-11.56 3.876z" opacity=".596" fill="#727272"/><path d="M133.604 9.674C143.842 3.664 155.812.362 170.08.65c13.663.18 29.402 1.497 35.27 9.402 1.803 3.537-5.814-2.051-10.702 1.228-1.82 1.31-2.613 2.266-3.685 3.402-1.628 2.03-1.803 1.651-5.103 3.685-1.612 3.196-1.025 3.603-1.511 5.387-1.192 2.84-3.925 3.642-6.946 6.07-2.414 6-7.687 8.569-11.575 12.64-2.612 1.182-5.066.718-7.56.66-1.865.439-3.742.82-5.67.946-2.675-.554-4.688-2.186-6.898-3.496-3.637-.502-5.768-.062-8.504 0z" fill="#b6aeae" stroke="#333" stroke-width="1.265" stroke-linejoin="round"/><path d="M192.327 6.225c-21.733-3.558-33.443.901-45.358 5.197" opacity=".484" fill="none" stroke="#333" stroke-linecap="round"/><path d="M150.01 125.115c-.809 5.852.915 8.861 3.98 10.965-.985 18.15 9.575 21.4 13.402 11.035 1.498-4.058 10.057-4.665 13.14-9.201 3.61-5.311 1.635-11.472 12.626-17.52-12.506-2.508-26.628-2.23-43.148 4.721z" opacity=".596" fill="url(#d)" transform="translate(-1.853 -113.315)"/><path d="M148 17.327c.986 3.625 4.152 5.32 4.44 8.41-.608 4.568-2.625 4.291-2.74 6.52" opacity=".684" fill="none" stroke="#333" stroke-linecap="round"/><path d="M145.18 5.658c21.677-5.592 39.18-2.37 44.553-1.764M146.313 18.604c.402 2.115 3.924 4.758 4.678 7.04" opacity=".676" fill="none" stroke="#f4f4f4" stroke-width="1.9" stroke-linecap="round"/><path d="M153.657 42.767c-2.445-2.347-6.395-2.343-8.42-5.68-4.068-2.223-1.652-8.735-2.405-12.895l-4.744 1.002 4.01 13.697c4.276 1.234 10.13 5.175 11.559 3.876z" opacity=".596" fill="#727272"/><g><path d="M100.39 3.39c.669.85 1.321 1.701.944 2.552-.925-1.153-2.025-1.927-4.063-1.89.458.526 1.664.912 1.228 1.606-1.857-1.267-4.784-.858-7.134-1.465 1.95.868 3.799 1.136 3.45 1.937-2.387-.568-4.743-1.206-7.371-1.228-6.206.799-6.978 1.264-9.025 1.512-2.98.06-5.194-1.524-7.606-1.7 2.723 1.554 3.073 1.751 2.74 2.314-2.098-1.44-6.012-2.821-9.166-3.355 1.42 1.55 4.722 2.43 4.63 3.426-4.094-2.658-5.263-1.98-8.079-1.819 1.313 1.795 5.379 1.724 6.047 3-3.319-1.743-5.3-.503-7.512.969 2.98.937 4.826.755 5.953 1.039-3.498.073-4.822 2.249-6.52 4.063 2.58 1.05 4.06.174 5.67-.472-2.174 1.27-4.472 2.478-4.63 4.725 4.343-.454 2.54.634 3.142.472-2.146 1.987-1.406 3.376-1.417 4.63 1.316.185 3.07-.095 3.826 1.394 1.613 2.297 1.118 4.659.78 7.016-1.003 3.136-2.526 4.535-3.874 6.52-2.076 7.71 3.047 7.89 3.047 7.89.077-2.344.127-2.93.756-4.18-.071 2.436.518 3.88 1.488 4.417 3.612 2.264 3.22 3.966 4.536 5.67-.063-.987-.364-2 .095-2.93 2.474 1.654 3.688 3.056 5.291 4.536-.109-1.197-.597-2.212.662-4.063.493 1.065 1.082 1.607 1.7 1.984.306-.28.707-.44 1.513-.095 1.435.363 2.778 1.284 4.157 1.985-.18-.633.061-1.002.378-1.323 1.337.655 2.236 1.528 3.213 2.362-.14-.527.186-.722.473-.945 1.168.197 1.718 1.114 2.551 1.701-.07-.737-.024-1.278.095-1.7.704-.09 1.279.121 1.795.472.491.522.244.952.283 1.417.174-.21.425-.515.85-1.04 1.165.411 1.638 1.513 2.269 2.458.241-.712.498-1.411.188-2.552 1.575-.244 3.15 1.91 5.387 4.064 2.236-2.154 3.81-4.308 5.386-4.064-.31 1.141-.053 1.84.189 2.552.63-.945 1.103-2.047 2.267-2.457.426.524.677.83.851 1.04.039-.466-.208-.896.284-1.418.516-.35 1.09-.562 1.795-.473.118.423.165.964.095 1.701.832-.587 1.383-1.504 2.55-1.7.287.222.613.417.473.944.977-.834 1.876-1.707 3.213-2.362.317.321.56.69.378 1.323 1.38-.701 2.722-1.622 4.158-1.985.805-.345 1.206-.184 1.512.095.618-.377 1.207-.919 1.7-1.984 1.26 1.85.771 2.866.662 4.063 1.604-1.48 2.818-2.882 5.292-4.536.459.93.157 1.943.094 2.93 1.317-1.704.925-3.406 4.536-5.67.97-.537 1.56-1.98 1.488-4.417.63 1.25.68 1.836.756 4.18 0 0 5.124-.18 3.048-7.89-1.348-1.985-2.872-3.384-3.874-6.52-.338-2.357-.834-4.72.779-7.016.757-1.489 2.51-1.209 3.827-1.394-.011-1.254.729-2.643-1.417-4.63.6.162-1.202-.926 3.141-.472-.157-2.247-2.456-3.456-4.63-4.725 1.61.646 3.09 1.522 5.67.472-1.698-1.814-3.022-3.99-6.52-4.063 1.128-.284 2.974-.102 5.953-1.04-2.211-1.47-4.193-2.711-7.512-.968.668-1.276 4.735-1.205 6.047-3-2.815-.161-3.985-.84-8.079 1.82-.092-.997 3.211-1.877 4.63-3.427-3.153.534-7.067 1.916-9.165 3.355-.334-.563.016-.76 2.74-2.315-2.413.177-4.626 1.76-7.607 1.7-2.047-.247-2.818-.712-9.024-1.511-2.629.022-4.985.66-7.37 1.228-.35-.8 1.499-1.07 3.448-1.937-2.35.607-5.277.198-7.134 1.465-.436-.694.77-1.08 1.228-1.606-2.038-.037-3.137.737-4.063 1.89-.377-.85.275-1.701.945-2.552-1.733.213-2.073 1.51-2.74 2.552-.668-1.042-1.007-2.339-2.74-2.552z" fill="#727272" stroke="#333" stroke-width=".70007868" stroke-linejoin="round"/></g><g><path d="M372.143 458.95c4.395 3.275 6.03 7.142 5.714 11.427-9.624-14.147-16.098-11.49-23.93-16.072 1.48 3.658 6.005 4.342 5.358 7.287-7.955-4.78-14.372-4.436-21.428-6.215 4.797 2.65 7.124 4.805 8.57 6.785-8.914-3.422-15.47-3-22.855-3.213 5.878 1.625 12.147 3.092 16.428 5.356-8.49-2.254-16.464-2.183-24.285-1.428 5.255 1.303 10.254 2.703 12.857 5-11.672-2.346-15.625-.056-28.511 4.603-8.87 6.925-15.328 9.193-23.276 13.97 8.532-3.322 16.405-5.103 23.93-6.073-11.313 5.944-22.774 11.546-36.072 12.857 2.952 1.215 8.843 1.939 17.857 2.143-5.733 2.494-11.36 4.359-16.428 2.857.39 2.55 4.345 5.747 12.143 9.643-16.486 3.954-19.411 9.791-24.287 15.357 13.802-6.06 15.058-5.48 17.857-5.714-15.74 2.967-15.89 11.132-20.357 17.857 5.615-2.856 11.833-6.563 13.572-3.928-15.36 5.624-12.956 13.085-19.285 19.643 4.43-2.587 8.528-7.158 13.57-6.072-5.853 8.506-4.107 13.434-3.795 15.804 5.869-8.625 7.367-12.947 7.367-12.947.64 7.868-1.991 13.358-5 18.572l7.858-7.144c-2.245 7.546-.53 12.124-.358 17.857 2.187-7.97 3.464-19.733 7.5-20-2.1 12.216.07 15.36.358 22.5 2.5-3.78 4.157-10.722 7.857-10 1.472 7.016-.392 8.475-.715 12.5 2.543-1.615 5.24-2.614 7.143-6.785 2.793 2.033 4.54 4.458 4.643 7.5l15-8.215c-1.646 4.437-4.946 6.393-7.858 8.93 6.65-1.95 11.376-4.542 15-7.5l-3.57 5c9.966-2.211 13.707-8.157 18.928-13.215l-2.858 6.785c7.782-2.21 13.04-7.367 18.93-11.785 1.055 1.913-1.05 5.405-1.787 8.215 5.592-2.908 10.014-7.222 13.93-12.143l-1.43 5.713c3.466-2.102 6.843-4.473 9.644-8.57l-1.787 7.857c4.767-2.115 7.955-5.495 11.072-8.93v5c5.484-2.016 8.14-6.86 11.786-10.714l-3.131 10.386 12.164 6.141 12.67-6.14-3.131-10.387c3.646 3.853 6.302 8.698 11.785 10.715v-5c3.117 3.434 6.305 6.814 11.072 8.93l-1.787-7.858c2.801 4.097 6.177 6.468 9.643 8.57L435 558.95c3.915 4.92 8.335 9.235 13.928 12.143-.738-2.81-2.84-6.302-1.785-8.215 5.89 4.418 11.147 9.574 18.93 11.785l-2.858-6.785c5.22 5.058 8.961 11.004 18.928 13.215l-3.57-5c3.623 2.958 8.35 5.55 15 7.5-2.913-2.537-6.213-4.493-7.858-8.93l15 8.215c.103-3.042 1.849-5.467 4.642-7.5 1.904 4.171 4.6 5.17 7.143 6.785-.323-4.025-2.186-5.484-.715-12.5 3.7-.722 5.358 6.22 7.858 10 .288-7.14 2.457-10.284.357-22.5 4.036.267 5.313 12.03 7.5 20 .173-5.733 1.887-10.31-.357-17.857l7.857 7.144c-3.008-5.214-5.64-10.704-5-18.572 0 0 1.498 4.322 7.367 12.947.313-2.37 2.058-7.298-3.795-15.804 5.042-1.086 9.14 3.485 13.57 6.072-6.328-6.558-3.924-14.02-19.285-19.643 1.74-2.635 7.955 1.072 13.57 3.928-4.467-6.725-4.615-14.89-20.355-17.857 2.8.235 4.053-.346 17.856 5.714-4.876-5.566-7.8-11.403-24.285-15.357 7.797-3.896 11.752-7.093 12.142-9.643-5.067 1.502-10.694-.363-16.428-2.857 9.014-.204 14.905-.928 17.858-2.143-13.299-1.311-24.76-6.913-36.072-12.857 7.524.97 15.397 2.75 23.93 6.072-7.949-4.776-14.41-7.044-23.278-13.969-12.886-4.659-16.837-6.949-28.51-4.603 2.604-2.297 7.602-3.697 12.858-5-7.822-.755-15.795-.826-24.286 1.428 4.282-2.264 10.55-3.73 16.428-5.356-7.385.214-13.942-.209-22.857 3.213 1.447-1.98 3.776-4.135 8.572-6.785-7.055 1.78-13.473 1.435-21.428 6.215-.646-2.945 3.877-3.63 5.356-7.287-7.831 4.582-14.304 1.925-23.928 16.072-.315-4.285 1.319-8.152 5.715-11.428-9.626 2.65-19.855 3.719-24.287 20-4.433-16.281-14.66-17.35-24.285-20z" transform="matrix(.26458 0 0 .26458 -1.853 -113.315)" fill="url(#e)" stroke="#333" stroke-width="2.135" stroke-linejoin="round"/></g><g><path d="M110.534 53.658c1.537-.793 1.944-1.733 4.21-2.806 3.176.17 6.839-.185 9.287-2.339 1.357-1.62 1.175-4.539-.535-6.147-.974-.642-4.418-2.147-7.15-2.94-1.01-.598-1.756-1.423-2.672-2.355-1.06-.465-6.726-.696-10.357-.919-3.63.223-9.295.454-10.356.919-.916.932-1.662 1.757-2.673 2.355-2.731.793-6.175 2.298-7.15 2.94-1.71 1.608-1.89 4.526-.534 6.147 2.448 2.154 6.111 2.509 9.287 2.339 2.265 1.073 2.672 2.013 4.21 2.806 2.805.923 5.055.861 7.216.869 2.161-.008 4.411.054 7.217-.869z" fill="#b6aeae" stroke="#333" stroke-width=".9649232599999998" stroke-linejoin="round"/><path d="M86.346 45.974c.073-.951.496-1.55 1.336-1.904M119.557 45.922c-.074-.951-.496-1.55-1.336-1.904" fill="none" stroke="#333" stroke-linecap="round"/><path d="M94.365 46.03c2.996-1.583 5.446-2.565 7.182-2.763M111.824 45.993c-2.996-1.584-5.445-2.566-7.182-2.764" opacity=".549" fill="none" stroke="#f4f4f4" stroke-width="2" stroke-linecap="round"/><path d="M84.302 43.101c1.699-1.58 3.99-1.887 6.095-2.598M121.722 42.675c-2.124-1.06-4.51-1.699-6.614-2.41" opacity=".567" fill="none" stroke="#f4f4f4" stroke-width="1.165" stroke-linecap="round"/></g><g><path d="M86.971 44.967c1.239 1.023 3.304.964 5.34.945 3.33-.714 4.954-2.213 7.322-3.59 1.986-1.029 4.962-.849 7.04-.048 3.52 2.063 4.315 2.47 6.78 3.497 4.884.307 4.893-.431 5.386-.756" fill="none" stroke="#333"/></g><g><path d="M102.115 33.78c-1.16.147-1.638-.076-2.924 1.603-1.898.054-2.363 1.138-2.589 2.005-.115 1.199.738 1.221 1.47 1.403.438-.652-.018-1.883 1.604-1.904 1.616-.345 2.31 1.519 2.439 2.105h2.138c.128-.586.822-2.45 2.439-2.105 1.622.02 1.165 1.252 1.603 1.904.732-.182 1.586-.204 1.47-1.403-.226-.867-.824-1.984-2.722-2.038-1.286-1.679-1.897-1.457-3.058-1.604z" fill="#bba9a9" stroke="#333" stroke-width=".6648895399999999" stroke-linecap="round" stroke-linejoin="round"/></g><g transform="translate(-1.853 -113.315)"><ellipse cx="86.84" cy="139.431" rx="8.788" ry="4.299" fill="#f3f3f3"/><circle cx="86.486" cy="138.321" r="6.118" fill="#6fa890" stroke="#333" stroke-width="1.165" stroke-linecap="round" stroke-linejoin="round"/><circle cx="86.509" cy="138.345" r="4.725" fill="#333"/><circle cx="83.131" cy="138.368" r="1.488" fill="#f4f4f4"/><circle cx="89.557" cy="139.455" r=".945" fill="#f4f4f4"/><ellipse cx="-123.173" cy="139.408" rx="8.788" ry="4.299" transform="scale(-1 1)" fill="#f3f3f3"/><circle cx="-123.527" cy="138.297" r="6.118" transform="scale(-1 1)" fill="#6fa890" stroke="#333" stroke-width="1.165" stroke-linecap="round" stroke-linejoin="round"/><circle cx="-123.504" cy="138.321" r="4.725" transform="scale(-1 1)" fill="#333"/><circle cx="-126.882" cy="138.344" r="1.488" transform="scale(-1 1)" fill="#f4f4f4"/><circle cx="-120.456" cy="139.431" r=".945" transform="scale(-1 1)" fill="#f4f4f4"/></g><g><path d="M82.955 16.383c1.01.885 1.159 1.524 1.414 2.32-2.857-.44-5.401.71-7.443 2.556-.445.206-1.644 1.733-2.617 3.203-.814 1.446-.553 2.746-.425 4.064l.449-.051c.22 2.238 1.582 3.018 2.59 4.687l.443-.888c1.395.88 3.669 1.058 5.164 1.07.476.592.516.996.709 1.466.806-.346 1.462-1.084 1.912-2.365l-.117 1.75c.283-.424.574-1.328.945-2.598.675.39.57.948.662 1.464.506-.309.794-1.109 1.133-1.795l.662.945c-.042-.7.475-1.063.85-1.512l.331 1.04c.346-.622.681-1.25 1.418-1.654l.283.472c.404-.616.662-1.291 1.701-1.654l.378.615c.396-.64.85-1.234 1.512-1.654.322-.422.558-.915.614-1.559-.085-1.021-.458-2.202-1.685-3.477-1.082-.952-2.3-1.54-3.512-2.145-1.01-1.552-1.976-3.155-3.59-4.017l.287 1.525s-2.9-1.622-4.068-1.808zm.133 4.418c2 .039 3.495-.15 5.134.49 2.029.792 5.244 2.836 5.64 4.955.243.967-.624 1.548-1.369 2.172-4.393-1.026-9.141-.668-13.614 1.186-.974-.822-2.397-1.241-3.007-2.59-.011-1.025.065-2.14 1.6-3.496 1.562-1.382 4.276-2.346 5.616-2.717z" fill="#b6aeae" stroke="#333" stroke-width=".6000674399999999"/><path d="M123.07 16.383c-1.01.885-1.16 1.524-1.414 2.32 2.857-.44 5.401.71 7.442 2.556.446.206 1.644 1.733 2.618 3.203.814 1.447.552 2.746.425 4.064l-.449-.051c-.22 2.238-1.582 3.018-2.591 4.687l-.442-.888c-1.395.88-3.67 1.059-5.164 1.07-.476.592-.516.996-.709 1.466-.806-.346-1.462-1.084-1.912-2.365l.117 1.75c-.283-.424-.574-1.328-.945-2.598-.675.39-.571.948-.662 1.464-.507-.308-.795-1.109-1.134-1.795l-.661.945c.041-.7-.475-1.063-.85-1.512l-.331 1.04c-.347-.622-.682-1.25-1.418-1.654l-.283.472c-.404-.616-.662-1.291-1.701-1.653l-.378.614c-.397-.64-.85-1.234-1.512-1.654a2.897 2.897 0 01-.614-1.559c.085-1.021.458-2.202 1.685-3.477 1.082-.952 2.3-1.54 3.512-2.145 1.01-1.552 1.976-3.155 3.59-4.016l-.287 1.524s2.899-1.622 4.068-1.808zm-.134 4.418c-2 .039-3.495-.15-5.134.49-2.028.793-5.243 2.836-5.64 4.955-.242.967.625 1.548 1.37 2.172 4.392-1.026 9.141-.668 13.614 1.186.974-.822 2.397-1.241 3.006-2.59.012-1.025-.065-2.14-1.598-3.496-1.563-1.382-4.277-2.345-5.618-2.717z" fill="#b6aeae" stroke="#333" stroke-width=".6"/><path d="M78.829 30.406c2.75-1.377 5.94-2.694 12.795-1.537-3.111.379-7.34.35-9.788 2.238-1.16-.552-1.683-.408-3.007-.701zM127.02 30.377c-2.749-1.377-5.94-2.693-12.795-1.537 3.112.379 7.341.35 9.789 2.238 1.16-.552 1.682-.408 3.007-.701z" opacity=".491" fill="#f4f4f4"/></g></svg>