<?xml version="1.0" encoding="UTF-8" standalone="no"?>
<!DOCTYPE svg PUBLIC "-//W3C//DTD SVG 1.1//EN" "http://www.w3.org/Graphics/SVG/1.1/DTD/svg11.dtd">
<svg width="100%" height="100%" viewBox="0 0 3934 3099" version="1.1" xmlns="http://www.w3.org/2000/svg" xmlns:xlink="http://www.w3.org/1999/xlink" xml:space="preserve" xmlns:serif="http://www.serif.com/" style="fill-rule:evenodd;clip-rule:evenodd;stroke-linejoin:round;stroke-miterlimit:2;">
    <g transform="matrix(1,0,0,1,-5403.53,-4821.78)">
        <g transform="matrix(4.16667,0,0,4.16667,78.6163,-15.723)">
            <path d="M1364.4,1706.67C1357.06,1705.95 1350.57,1701.36 1345.63,1693.41C1335.77,1677.54 1333.67,1650.56 1338.44,1637.94C1345.75,1618.6 1373.66,1625.07 1374.84,1625.35L1373.27,1631.89L1374.06,1628.62L1373.27,1631.89C1373.04,1631.83 1349.94,1626.5 1344.73,1640.32C1340.59,1651.27 1342.61,1675.82 1351.34,1689.87C1355.18,1696.06 1359.8,1699.47 1365.05,1699.98L1364.4,1706.67Z" style="fill:rgb(178,192,213);fill-rule:nonzero;"/>
        </g>
        <g transform="matrix(4.16667,0,0,4.16667,78.6163,-15.723)">
            <path d="M1440.87,1621.61L1440.87,1712.63C1440.87,1712.74 1440.87,1712.84 1440.86,1712.93C1440.7,1717.34 1437.08,1720.87 1432.63,1720.87L1368.85,1720.87C1364.41,1720.87 1360.78,1717.34 1360.62,1712.93L1360.62,1621.61C1360.62,1617.06 1364.3,1613.38 1368.85,1613.38L1432.63,1613.38C1437.18,1613.38 1440.87,1617.06 1440.87,1621.61Z" style="fill:rgb(230,236,247);fill-rule:nonzero;"/>
        </g>
        <g transform="matrix(4.16667,0,0,4.16667,78.6163,-15.723)">
            <path d="M1431.91,1595.46L1369.58,1595.46C1364.63,1595.46 1360.62,1599.47 1360.62,1604.42C1360.62,1609.36 1364.63,1613.38 1369.58,1613.38L1431.91,1613.38C1436.86,1613.38 1440.87,1609.36 1440.87,1604.42C1440.87,1599.47 1436.86,1595.46 1431.91,1595.46Z" style="fill:rgb(178,192,213);fill-rule:nonzero;"/>
        </g>
        <g transform="matrix(4.16667,0,0,4.16667,78.6163,-15.723)">
            <path d="M2139.99,1715.25C2139.32,1715.25 2138.63,1715.18 2137.94,1715.05L2138.61,1711.43C2141.66,1711.99 2144.37,1710.77 2146.65,1707.8C2151.08,1702.04 2152.44,1691.49 2150.41,1687.21C2149.68,1685.67 2146.43,1682.58 2132,1686.98C2131.19,1687.22 2130.99,1687.28 2130.66,1687.28L2130.69,1683.6C2130.48,1683.6 2130.34,1683.63 2130.31,1683.64C2130.42,1683.61 2130.63,1683.54 2130.93,1683.45C2143.55,1679.6 2151.22,1680.34 2153.74,1685.63C2156.26,1690.95 2154.97,1703.03 2149.57,1710.04C2146.91,1713.51 2143.63,1715.28 2139.99,1715.25Z" style="fill:rgb(230,236,247);fill-rule:nonzero;"/>
        </g>
        <g transform="matrix(4.16667,0,0,4.16667,78.6163,-15.723)">
            <path d="M2122.57,1723.47L2115.37,1723.41C2105.98,1723.34 2098.43,1715.66 2098.51,1706.28L2098.7,1683.09C2098.73,1679.22 2101.89,1676.12 2105.75,1676.15L2132.95,1676.37C2136.82,1676.4 2139.93,1679.56 2139.9,1683.42L2139.71,1706.61C2139.63,1716 2131.96,1723.55 2122.57,1723.47Z" style="fill:rgb(230,236,247);fill-rule:nonzero;"/>
        </g>
        <g transform="matrix(4.16667,0,0,4.16667,78.6163,-15.723)">
            <path d="M2194.63,1558.84L1938.33,1558.84C1935.01,1558.84 1932.33,1556.16 1932.33,1552.84L1932.33,1550.05C1932.33,1546.73 1935.01,1544.05 1938.33,1544.05L2194.63,1544.05C2197.94,1544.05 2200.63,1546.73 2200.63,1550.05L2200.63,1552.84C2200.63,1556.16 2197.94,1558.84 2194.63,1558.84Z" style="fill:rgb(230,236,247);fill-rule:nonzero;"/>
        </g>
        <g transform="matrix(4.16667,0,0,4.16667,78.6163,-15.723)">
            <path d="M1772.29,1712.64L1706.01,1712.64C1706.09,1710.37 1706.2,1708.2 1706.34,1706.13C1707.78,1684.06 1711.66,1672.83 1712.03,1664.51C1712.17,1661.48 1711.82,1659.18 1711.11,1657.32L1712.03,1646.97C1712.03,1646.97 1721.55,1672.72 1731.07,1680.56C1733.43,1682.5 1736.58,1683.55 1740.56,1683.55C1748.09,1683.55 1758.6,1679.79 1772.29,1671.21L1772.29,1712.64ZM1760.1,1618.98C1751.77,1618.98 1750.09,1527.69 1746.74,1519.88C1743.81,1513.04 1709.41,1503.66 1700.63,1501.36C1701.15,1499.68 1701.43,1498.73 1701.39,1498.68C1701.15,1498.36 1698.01,1494.97 1693.66,1494.97C1691.39,1494.97 1688.78,1495.9 1686.09,1498.68C1678.25,1506.78 1667.43,1566.35 1652.5,1591.73C1651.6,1593.26 1650.64,1594.65 1649.61,1595.9L1649.61,1449.74L1733.23,1449.74L1772.29,1508.33L1772.29,1611.94C1766.6,1616.2 1762.22,1618.84 1760.18,1618.97C1760.15,1618.98 1760.13,1618.98 1760.1,1618.98Z" style="fill:rgb(244,247,252);fill-rule:nonzero;"/>
        </g>
        <g transform="matrix(4.16667,0,0,4.16667,78.6163,-15.723)">
            <path d="M2007.37,1728.57C2007.37,1733.11 2003.68,1736.8 1999.14,1736.8L1657.85,1736.8C1653.3,1736.8 1649.61,1733.11 1649.61,1728.57L1649.61,1181.55C1649.61,1177.01 1653.3,1173.32 1657.85,1173.32L1999.14,1173.32C2003.68,1173.32 2007.37,1177.01 2007.37,1181.55L2007.37,1728.57ZM2011.66,1161L1645.33,1161C1640.78,1161 1637.09,1164.68 1637.09,1169.23L1637.09,1740.88C1637.09,1745.43 1640.78,1749.12 1645.33,1749.12L2011.66,1749.12C2016.21,1749.12 2019.9,1745.43 2019.9,1740.88L2019.9,1169.23C2019.9,1164.68 2016.21,1161 2011.66,1161Z" style="fill:rgb(230,236,247);fill-rule:nonzero;"/>
        </g>
        <g transform="matrix(4.16667,0,0,4.16667,78.6163,-15.723)">
            <path d="M1756.59,1267.38L1668.3,1267.38C1663.88,1267.38 1660.3,1263.79 1660.3,1259.38L1660.3,1190.62C1660.3,1186.2 1663.88,1182.62 1668.3,1182.62L1756.59,1182.62C1761.01,1182.62 1764.59,1186.2 1764.59,1190.62L1764.59,1259.38C1764.59,1263.79 1761.01,1267.38 1756.59,1267.38Z" style="fill:rgb(230,236,247);fill-rule:nonzero;"/>
        </g>
        <g transform="matrix(4.16667,0,0,4.16667,78.6163,-15.723)">
            <path d="M1873.03,1267.38L1784.73,1267.38C1780.31,1267.38 1776.73,1263.79 1776.73,1259.38L1776.73,1190.62C1776.73,1186.2 1780.31,1182.62 1784.73,1182.62L1873.03,1182.62C1877.45,1182.62 1881.03,1186.2 1881.03,1190.62L1881.03,1259.38C1881.03,1263.79 1877.45,1267.38 1873.03,1267.38Z" style="fill:rgb(230,236,247);fill-rule:nonzero;"/>
        </g>
        <g transform="matrix(4.16667,0,0,4.16667,78.6163,-15.723)">
            <path d="M1989.46,1267.38L1901.17,1267.38C1896.75,1267.38 1893.17,1263.79 1893.17,1259.38L1893.17,1190.62C1893.17,1186.2 1896.75,1182.62 1901.17,1182.62L1989.46,1182.62C1993.88,1182.62 1997.46,1186.2 1997.46,1190.62L1997.46,1259.38C1997.46,1263.79 1993.88,1267.38 1989.46,1267.38Z" style="fill:rgb(230,236,247);fill-rule:nonzero;"/>
        </g>
        <g transform="matrix(4.16667,0,0,4.16667,78.6163,-15.723)">
            <path d="M1756.59,1360.87L1668.3,1360.87C1663.88,1360.87 1660.3,1357.29 1660.3,1352.87L1660.3,1284.12C1660.3,1279.7 1663.88,1276.12 1668.3,1276.12L1756.59,1276.12C1761.01,1276.12 1764.59,1279.7 1764.59,1284.12L1764.59,1352.87C1764.59,1357.29 1761.01,1360.87 1756.59,1360.87Z" style="fill:rgb(230,236,247);fill-rule:nonzero;"/>
        </g>
        <g transform="matrix(4.16667,0,0,4.16667,78.6163,-15.723)">
            <path d="M1873.03,1360.87L1784.73,1360.87C1780.31,1360.87 1776.73,1357.29 1776.73,1352.87L1776.73,1284.12C1776.73,1279.7 1780.31,1276.12 1784.73,1276.12L1873.03,1276.12C1877.45,1276.12 1881.03,1279.7 1881.03,1284.12L1881.03,1352.87C1881.03,1357.29 1877.45,1360.87 1873.03,1360.87Z" style="fill:rgb(230,236,247);fill-rule:nonzero;"/>
        </g>
        <g transform="matrix(4.16667,0,0,4.16667,78.6163,-15.723)">
            <path d="M1989.46,1360.87L1901.17,1360.87C1896.75,1360.87 1893.17,1357.29 1893.17,1352.87L1893.17,1284.12C1893.17,1279.7 1896.75,1276.12 1901.17,1276.12L1989.46,1276.12C1993.88,1276.12 1997.46,1279.7 1997.46,1284.12L1997.46,1352.87C1997.46,1357.29 1993.88,1360.87 1989.46,1360.87Z" style="fill:rgb(230,236,247);fill-rule:nonzero;"/>
        </g>
        <g transform="matrix(4.16667,0,0,4.16667,78.6163,-15.723)">
            <rect x="1649.61" y="1378.08" width="356.66" height="10.8" style="fill:rgb(230,236,247);fill-rule:nonzero;"/>
        </g>
        <g transform="matrix(4.16667,0,0,4.16667,78.6163,-15.723)">
            <path d="M1914.14,1601.9C1911.96,1598.45 1910.67,1599.58 1909.91,1602.11C1910.19,1595.98 1909.78,1588.5 1906.87,1583.98C1901.27,1575.3 1896.39,1591.73 1896.39,1591.73C1896.39,1591.73 1899.59,1577.54 1895.11,1566.35C1890.63,1555.15 1883.91,1570.83 1883.91,1570.83C1883.91,1570.83 1886.6,1535.13 1876.18,1532.1C1865.77,1529.08 1863.76,1548.71 1863.76,1548.71C1863.76,1548.71 1852.84,1532.19 1837.16,1520.44C1821.49,1508.68 1818.13,1523.24 1826.67,1539.75C1829.69,1545.59 1834.23,1549.28 1838.83,1551.63C1832.94,1551.45 1827.59,1553.18 1826.73,1559.74C1825.5,1569.13 1844.05,1573.98 1858.88,1576.35C1853.19,1576.6 1848.45,1578.24 1848.92,1583.14C1849.47,1588.89 1859.54,1592.16 1869.69,1594C1866.25,1594.64 1864.1,1596.34 1865.16,1599.94C1867.46,1607.82 1883.64,1612.01 1893.54,1613.86C1887.14,1613.26 1879.51,1613.71 1882.23,1619.88C1886.71,1630.01 1912.51,1629.04 1912.51,1629.04C1912.51,1629.04 1919.46,1610.3 1914.14,1601.9Z" style="fill:rgb(84,179,99);fill-rule:nonzero;"/>
        </g>
        <g transform="matrix(4.16667,0,0,4.16667,78.6163,-15.723)">
            <path d="M1923.07,1607.36C1923.07,1607.36 1901.87,1575.72 1904.68,1533.54C1907.49,1491.36 1943.63,1439.7 1958.93,1455.06C1974.24,1470.42 1964.53,1496.92 1950.35,1535.37C1936.17,1573.81 1923.07,1607.36 1923.07,1607.36Z" style="fill:rgb(125,198,131);fill-rule:nonzero;"/>
        </g>
        <g transform="matrix(4.16667,0,0,4.16667,78.6163,-15.723)">
            <path d="M1932.73,1707.29C1932.61,1706.72 1920.98,1649.6 1903.92,1612.61C1886.89,1575.7 1833.68,1531.6 1833.14,1531.16C1832.79,1530.87 1832.74,1530.34 1833.03,1529.98C1833.33,1529.62 1833.85,1529.57 1834.21,1529.87C1834.75,1530.31 1888.25,1574.65 1905.44,1611.9C1916.79,1636.51 1925.75,1669.96 1930.54,1689.91C1925.97,1651.71 1916.62,1561.24 1926.22,1530.27C1938.47,1490.71 1951.92,1480.06 1952.49,1479.63C1952.86,1479.34 1953.39,1479.41 1953.67,1479.78C1953.95,1480.15 1953.88,1480.68 1953.51,1480.96C1953.38,1481.06 1939.89,1491.83 1927.82,1530.76C1915.7,1569.88 1934.2,1705.64 1934.39,1707.01L1932.73,1707.29Z" style="fill:rgb(37,76,77);fill-rule:nonzero;"/>
        </g>
        <g transform="matrix(4.16667,0,0,4.16667,78.6163,-15.723)">
            <path d="M1964.45,1692.17C1962.34,1692.17 1960.32,1692.56 1958.44,1693.27C1956.81,1684.27 1949.44,1677.48 1940.6,1677.48C1934.91,1677.48 1929.83,1680.29 1926.5,1684.7C1925.27,1683.89 1923.95,1683.23 1922.55,1682.75C1922.56,1682.44 1922.57,1682.13 1922.57,1681.81C1922.57,1673.23 1917.43,1665.94 1910.29,1663.31C1909.81,1652.96 1901.87,1644.73 1892.13,1644.73C1885.18,1644.73 1879.15,1648.92 1876.09,1655.08C1873.66,1653.79 1870.93,1653.06 1868.04,1653.06C1859.49,1653.06 1852.32,1659.41 1850.38,1667.97C1850.21,1667.96 1850.03,1667.96 1849.86,1667.96C1839.82,1667.96 1831.68,1676.71 1831.68,1687.51C1831.68,1690.71 1832.4,1693.72 1833.66,1696.38C1829.44,1699.96 1826.73,1705.5 1826.73,1711.73C1826.73,1722.53 1834.87,1731.29 1844.91,1731.29C1848.8,1731.29 1852.4,1729.97 1855.35,1727.73C1858.72,1729.98 1862.7,1731.29 1866.96,1731.29C1869.83,1731.29 1872.57,1730.69 1875.09,1729.61C1879.7,1732.57 1885.09,1734.28 1890.85,1734.28C1900.99,1734.28 1909.99,1729 1915.61,1720.87C1916.06,1720.9 1916.52,1720.93 1916.99,1720.93C1922.68,1720.93 1927.76,1718.11 1931.09,1713.71C1933.86,1715.54 1937.12,1716.6 1940.6,1716.6C1942.71,1716.6 1944.73,1716.21 1946.61,1715.5C1948.24,1724.49 1955.6,1731.29 1964.45,1731.29C1974.49,1731.29 1982.63,1722.53 1982.63,1711.73C1982.63,1700.93 1974.49,1692.17 1964.45,1692.17Z" style="fill:rgb(56,142,119);fill-rule:nonzero;"/>
        </g>
        <g transform="matrix(4.16667,0,0,4.16667,78.6163,-15.723)">
            <path d="M1881.31,1709.18C1879.56,1709.18 1877.88,1709.48 1876.32,1710.03C1874.97,1703.09 1868.86,1697.85 1861.53,1697.85C1856.8,1697.85 1852.59,1700.02 1849.83,1703.42C1848.81,1702.79 1847.71,1702.29 1846.55,1701.92C1846.56,1701.68 1846.57,1701.44 1846.57,1701.19C1846.57,1694.58 1842.3,1688.96 1836.37,1686.93C1835.98,1678.95 1829.39,1672.6 1821.31,1672.6C1815.55,1672.6 1810.54,1675.83 1808,1680.58C1805.99,1679.58 1803.72,1679.02 1801.32,1679.02C1794.23,1679.02 1788.28,1683.92 1786.67,1690.52C1786.53,1690.52 1786.39,1690.51 1786.24,1690.51C1777.91,1690.51 1771.16,1697.26 1771.16,1705.59C1771.16,1708.05 1771.75,1710.37 1772.8,1712.43C1769.3,1715.19 1767.06,1719.46 1767.06,1724.26C1767.06,1732.59 1773.81,1739.35 1782.14,1739.35C1785.36,1739.35 1788.35,1738.33 1790.8,1736.61C1793.6,1738.34 1796.9,1739.35 1800.43,1739.35C1802.81,1739.35 1805.09,1738.88 1807.18,1738.06C1811,1740.34 1815.47,1741.65 1820.25,1741.65C1828.66,1741.65 1836.13,1737.58 1840.79,1731.31C1841.17,1731.34 1841.55,1731.36 1841.94,1731.36C1846.66,1731.36 1850.87,1729.19 1853.64,1725.79C1855.93,1727.2 1858.63,1728.02 1861.53,1728.02C1863.27,1728.02 1864.95,1727.72 1866.51,1727.17C1867.86,1734.11 1873.97,1739.35 1881.31,1739.35C1889.64,1739.35 1896.39,1732.59 1896.39,1724.26C1896.39,1715.94 1889.64,1709.18 1881.31,1709.18Z" style="fill:rgb(125,198,131);fill-rule:nonzero;"/>
        </g>
        <g transform="matrix(4.16667,0,0,4.16667,78.6163,-15.723)">
            <path d="M2142.94,1352.98C2142.94,1355.26 2141.1,1357.1 2138.83,1357.1L2051.99,1357.1C2049.71,1357.1 2047.87,1355.26 2047.87,1352.98L2047.87,1227.77C2047.87,1225.5 2049.71,1223.66 2051.99,1223.66L2138.83,1223.66C2141.1,1223.66 2142.94,1225.5 2142.94,1227.77L2142.94,1352.98ZM2146.15,1213.38L2044.66,1213.38C2042.39,1213.38 2040.54,1215.23 2040.54,1217.5L2040.54,1363.25C2040.54,1365.53 2042.39,1367.37 2044.66,1367.37L2146.15,1367.37C2148.42,1367.37 2150.27,1365.53 2150.27,1363.25L2150.27,1217.5C2150.27,1215.23 2148.42,1213.38 2146.15,1213.38Z" style="fill:rgb(230,236,247);fill-rule:nonzero;"/>
        </g>
        <g transform="matrix(4.16667,0,0,4.16667,78.6163,-15.723)">
            <path d="M2105.83,1316.24L2084.98,1316.24C2080.56,1316.24 2076.98,1312.65 2076.98,1308.24L2076.98,1272.51C2076.98,1268.1 2080.56,1264.51 2084.98,1264.51L2105.83,1264.51C2110.25,1264.51 2113.83,1268.1 2113.83,1272.51L2113.83,1308.24C2113.83,1312.65 2110.25,1316.24 2105.83,1316.24Z" style="fill:rgb(178,192,213);fill-rule:nonzero;"/>
        </g>
        <g transform="matrix(4.16667,0,0,4.16667,78.6163,-15.723)">
            <path d="M1475.98,1320.91C1475.98,1323.18 1474.14,1325.02 1471.86,1325.02L1346.66,1325.02C1344.38,1325.02 1342.54,1323.18 1342.54,1320.91L1342.54,1234.06C1342.54,1231.79 1344.38,1229.94 1346.66,1229.94L1471.86,1229.94C1474.14,1229.94 1475.98,1231.79 1475.98,1234.06L1475.98,1320.91ZM1482.14,1222.63L1336.38,1222.63C1334.11,1222.63 1332.27,1224.47 1332.27,1226.74L1332.27,1328.23C1332.27,1330.5 1334.11,1332.34 1336.38,1332.34L1482.14,1332.34C1484.41,1332.34 1486.25,1330.5 1486.25,1328.23L1486.25,1226.74C1486.25,1224.47 1484.41,1222.63 1482.14,1222.63Z" style="fill:rgb(230,236,247);fill-rule:nonzero;"/>
        </g>
        <g transform="matrix(4.16667,0,0,4.16667,78.6163,-15.723)">
            <path d="M1383.4,1287.91L1383.4,1267.06C1383.4,1262.64 1386.98,1259.06 1391.4,1259.06L1427.12,1259.06C1431.54,1259.06 1435.12,1262.64 1435.12,1267.06L1435.12,1287.91C1435.12,1292.33 1431.54,1295.91 1427.12,1295.91L1391.4,1295.91C1386.98,1295.91 1383.4,1292.33 1383.4,1287.91Z" style="fill:rgb(230,236,247);fill-rule:nonzero;"/>
        </g>
        <g transform="matrix(4.16667,0,0,4.16667,78.6163,-15.723)">
            <path d="M1597.51,1391.68L1341.2,1391.68C1337.89,1391.68 1335.2,1388.99 1335.2,1385.68L1335.2,1382.89C1335.2,1379.57 1337.89,1376.89 1341.2,1376.89L1597.51,1376.89C1600.82,1376.89 1603.51,1379.57 1603.51,1382.89L1603.51,1385.68C1603.51,1388.99 1600.82,1391.68 1597.51,1391.68Z" style="fill:rgb(230,236,247);fill-rule:nonzero;"/>
        </g>
        <g transform="matrix(4.16667,0,0,4.16667,78.6163,-15.723)">
            <path d="M1383.4,1523.21L1383.4,1384.99C1383.4,1383.66 1384.48,1382.58 1385.81,1382.58L1403.4,1382.58C1404.73,1382.58 1405.82,1383.66 1405.82,1384.99C1405.82,1386.32 1404.73,1387.4 1403.4,1387.4L1393.06,1387.4C1391.72,1387.4 1390.64,1388.48 1390.64,1389.82L1390.64,1523.21C1390.64,1524.55 1389.56,1525.63 1388.23,1525.63L1385.81,1525.63C1384.48,1525.63 1383.4,1524.55 1383.4,1523.21Z" style="fill:rgb(178,192,213);fill-rule:nonzero;"/>
        </g>
        <g transform="matrix(4.16667,0,0,4.16667,78.6163,-15.723)">
            <path d="M1384.62,1515.31C1387.09,1513.98 1390.21,1515.11 1391.18,1517.75C1397.44,1534.81 1390.37,1554.31 1373.9,1563.16C1357.43,1572.01 1337.26,1567.14 1326.5,1552.51C1324.83,1550.24 1325.6,1547.02 1328.08,1545.69L1384.62,1515.31Z" style="fill:rgb(230,236,247);fill-rule:nonzero;"/>
        </g>
        <g transform="matrix(4.16667,0,0,4.16667,78.6163,-15.723)">
            <path d="M1477.95,1468.96C1474.03,1468.96 1470.85,1465.78 1470.85,1461.86L1470.85,1389.68C1470.85,1385.75 1474.03,1382.58 1477.95,1382.58C1481.87,1382.58 1485.05,1385.75 1485.05,1389.68L1485.05,1461.86C1485.05,1465.78 1481.87,1468.96 1477.95,1468.96Z" style="fill:rgb(178,192,213);fill-rule:nonzero;"/>
        </g>
        <g transform="matrix(4.16667,0,0,4.16667,78.6163,-15.723)">
            <path d="M1538,1512.41C1538,1544.96 1511.61,1571.35 1479.06,1571.35C1446.51,1571.35 1420.13,1544.96 1420.13,1512.41C1420.13,1479.86 1446.51,1453.48 1479.06,1453.48C1511.61,1453.48 1538,1479.86 1538,1512.41Z" style="fill:rgb(178,192,213);fill-rule:nonzero;"/>
        </g>
        <g transform="matrix(4.16667,0,0,4.16667,78.6163,-15.723)">
            <path d="M1515.62,1512.41C1515.62,1532.6 1499.25,1548.97 1479.06,1548.97C1458.87,1548.97 1442.51,1532.6 1442.51,1512.41C1442.51,1492.22 1458.87,1475.86 1479.06,1475.86C1499.25,1475.86 1515.62,1492.22 1515.62,1512.41Z" style="fill:rgb(230,236,247);fill-rule:nonzero;"/>
        </g>
        <g transform="matrix(4.16667,0,0,4.16667,78.6163,-15.723)">
            <path d="M1510.7,1512.41C1510.7,1529.89 1496.54,1544.05 1479.06,1544.05C1461.59,1544.05 1447.42,1529.89 1447.42,1512.41C1447.42,1494.94 1461.59,1480.77 1479.06,1480.77C1496.54,1480.77 1510.7,1494.94 1510.7,1512.41Z" style="fill:rgb(178,192,213);fill-rule:nonzero;"/>
        </g>
        <g transform="matrix(4.16667,0,0,4.16667,78.6163,-15.723)">
            <path d="M1494.58,1527.27C1477.11,1527.27 1462.94,1513.1 1462.94,1495.63C1462.94,1491.52 1463.73,1487.59 1465.16,1483.99C1454.66,1489.13 1447.42,1499.93 1447.42,1512.41C1447.42,1529.89 1461.59,1544.05 1479.06,1544.05C1492.42,1544.05 1503.84,1535.77 1508.48,1524.05C1504.29,1526.11 1499.57,1527.27 1494.58,1527.27Z" style="fill:rgb(135,157,198);fill-rule:nonzero;"/>
        </g>
        <g transform="matrix(4.16667,0,0,4.16667,78.6163,-15.723)">
            <path d="M2160.16,1874.2L1327.49,1874.2C1318.65,1874.2 1311.49,1867.03 1311.49,1858.2L1311.49,1736.87C1311.49,1728.03 1318.65,1720.87 1327.49,1720.87L2160.16,1720.87C2169,1720.87 2176.16,1728.03 2176.16,1736.87L2176.16,1858.2C2176.16,1867.03 2169,1874.2 2160.16,1874.2Z" style="fill:rgb(230,236,247);fill-rule:nonzero;"/>
        </g>
        <g transform="matrix(4.16667,0,0,4.16667,78.6163,-15.723)">
            <path d="M2172.05,1712.64L1315.6,1712.64C1313.33,1712.64 1311.49,1714.48 1311.49,1716.75C1311.49,1719.03 1313.33,1720.87 1315.6,1720.87L2172.05,1720.87C2174.32,1720.87 2176.16,1719.03 2176.16,1716.75C2176.16,1714.48 2174.32,1712.64 2172.05,1712.64Z" style="fill:rgb(178,192,213);fill-rule:nonzero;"/>
        </g>
        <g transform="matrix(4.16667,0,0,4.16667,78.6163,-15.723)">
            <path d="M1470.63,1874.2L1333.48,1874.2C1329.06,1874.2 1325.48,1870.62 1325.48,1866.2L1325.48,1744.55C1325.48,1740.13 1329.06,1736.55 1333.48,1736.55L1470.63,1736.55C1475.05,1736.55 1478.63,1740.13 1478.63,1744.55L1478.63,1866.2C1478.63,1870.62 1475.05,1874.2 1470.63,1874.2Z" style="fill:white;fill-rule:nonzero;"/>
        </g>
        <g transform="matrix(4.16667,0,0,4.16667,78.6163,-15.723)">
            <path d="M1640.54,1874.2L1503.38,1874.2C1498.96,1874.2 1495.38,1870.61 1495.38,1866.2L1495.38,1744.55C1495.38,1740.13 1498.96,1736.55 1503.38,1736.55L1640.54,1736.55C1644.96,1736.55 1648.54,1740.13 1648.54,1744.55L1648.54,1866.2C1648.54,1870.61 1644.96,1874.2 1640.54,1874.2Z" style="fill:white;fill-rule:nonzero;"/>
        </g>
        <g transform="matrix(4.16667,0,0,4.16667,78.6163,-15.723)">
            <path d="M1810.44,1874.2L1673.28,1874.2C1668.86,1874.2 1665.28,1870.61 1665.28,1866.2L1665.28,1744.55C1665.28,1740.13 1668.86,1736.55 1673.28,1736.55L1810.44,1736.55C1814.86,1736.55 1818.44,1740.13 1818.44,1744.55L1818.44,1866.2C1818.44,1870.61 1814.86,1874.2 1810.44,1874.2Z" style="fill:white;fill-rule:nonzero;"/>
        </g>
        <g transform="matrix(4.16667,0,0,4.16667,78.6163,-15.723)">
            <path d="M1980.34,1874.2L1843.19,1874.2C1838.77,1874.2 1835.19,1870.61 1835.19,1866.2L1835.19,1744.55C1835.19,1740.13 1838.77,1736.55 1843.19,1736.55L1980.34,1736.55C1984.76,1736.55 1988.34,1740.13 1988.34,1744.55L1988.34,1866.2C1988.34,1870.61 1984.76,1874.2 1980.34,1874.2Z" style="fill:white;fill-rule:nonzero;"/>
        </g>
        <g transform="matrix(4.16667,0,0,4.16667,78.6163,-15.723)">
            <path d="M2150.25,1874.2L2013.09,1874.2C2008.67,1874.2 2005.09,1870.61 2005.09,1866.2L2005.09,1744.55C2005.09,1740.13 2008.67,1736.55 2013.09,1736.55L2150.25,1736.55C2154.67,1736.55 2158.25,1740.13 2158.25,1744.55L2158.25,1866.2C2158.25,1870.61 2154.67,1874.2 2150.25,1874.2Z" style="fill:white;fill-rule:nonzero;"/>
        </g>
        <g transform="matrix(4.16667,0,0,4.16667,78.6163,-15.723)">
            <path d="M1457.06,1798.02C1457.06,1802.08 1453.77,1805.37 1449.71,1805.37C1445.65,1805.37 1442.36,1802.08 1442.36,1798.02C1442.36,1793.96 1445.65,1790.67 1449.71,1790.67C1453.77,1790.67 1457.06,1793.96 1457.06,1798.02Z" style="fill:rgb(178,192,213);fill-rule:nonzero;"/>
        </g>
        <g transform="matrix(4.16667,0,0,4.16667,78.6163,-15.723)">
            <path d="M1779.37,1797.74C1779.37,1801.65 1776.2,1804.82 1772.29,1804.82C1768.39,1804.82 1765.22,1801.65 1765.22,1797.74C1765.22,1793.83 1768.39,1790.67 1772.29,1790.67C1776.2,1790.67 1779.37,1793.83 1779.37,1797.74Z" style="fill:rgb(178,192,213);fill-rule:nonzero;"/>
        </g>
        <g transform="matrix(4.16667,0,0,4.16667,78.6163,-15.723)">
            <path d="M1423.98,1868.45C1423.98,1868.45 1396.26,1863.92 1399.06,1849.64C1401.86,1835.36 1431.82,1839.24 1431.26,1836.32C1430.7,1833.4 1423.14,1830.04 1428.18,1829.21C1433.22,1828.37 1450.57,1828.9 1447.77,1832.55C1444.97,1836.2 1442.17,1834.24 1444.97,1836.2C1447.77,1838.16 1462.33,1837.04 1468.49,1849.64C1474.65,1862.24 1466.81,1869.87 1423.98,1868.45Z" style="fill:rgb(197,63,82);fill-rule:nonzero;"/>
        </g>
        <g transform="matrix(4.16667,0,0,4.16667,78.6163,-15.723)">
            <path d="M1345.47,1838.32C1345.47,1838.32 1333.77,1807.79 1334.57,1816.39C1335.38,1825 1341.37,1824.24 1331.27,1818.59C1321.16,1812.95 1319.27,1816.37 1322.9,1819.92C1326.52,1823.48 1322.09,1817.02 1313.61,1818.98C1305.13,1820.95 1303.88,1822.52 1308.12,1824.39C1312.36,1826.26 1321.86,1826.91 1321.86,1826.91C1321.86,1826.91 1310.13,1827.89 1314.77,1829.31C1319.41,1830.73 1325.82,1829.15 1325.82,1829.15C1325.82,1829.15 1319.49,1831.23 1323.81,1831.64C1328.14,1832.06 1330.15,1830.8 1334.1,1830.57C1338.04,1830.34 1339.81,1831.46 1342.01,1834.77L1344.21,1838.08L1345.47,1838.32Z" style="fill:rgb(84,179,99);fill-rule:nonzero;"/>
        </g>
        <g transform="matrix(4.16667,0,0,4.16667,78.6163,-15.723)">
            <path d="M1333.28,1832.49C1330.83,1832.64 1334.27,1835.38 1334.76,1835.77C1334.13,1835.28 1328.18,1830.92 1322.53,1832.48C1316.55,1834.14 1313.47,1836.89 1316.35,1837.21C1317.15,1837.3 1317.98,1837.18 1318.77,1836.96C1316.22,1838.3 1313.19,1840.21 1312.42,1842.06C1311.03,1845.41 1310.67,1849.42 1315.11,1847.25C1319.55,1845.08 1325.86,1839.81 1325.86,1839.81C1325.86,1839.81 1321.92,1844.02 1325.24,1843.45C1328.56,1842.88 1333.61,1840.03 1333.61,1840.03C1333.61,1840.03 1332.32,1840.92 1334.56,1841.14C1336.8,1841.36 1337.19,1835.81 1340.41,1836.94C1343.64,1838.06 1347.31,1839.44 1347.31,1839.44L1348.31,1838.81C1348.31,1838.81 1335.91,1832.32 1333.28,1832.49Z" style="fill:rgb(56,142,119);fill-rule:nonzero;"/>
        </g>
        <g transform="matrix(4.16667,0,0,4.16667,78.6163,-15.723)">
            <path d="M1436.88,1858.9C1434.42,1859.9 1409.39,1861.53 1357.5,1848.84C1357.5,1848.84 1342.74,1847.58 1343.5,1839.33C1344.27,1831.07 1348.08,1829.77 1360.03,1834.1C1361.98,1834.81 1364.01,1835.55 1366.13,1836.32C1367.41,1836.79 1368.73,1837.27 1370.09,1837.76C1372.73,1838.71 1375.53,1839.71 1378.51,1840.75C1379.48,1841.09 1380.47,1841.43 1381.48,1841.78C1383.95,1842.63 1386.55,1843.5 1389.29,1844.4C1390.41,1844.77 1391.57,1845.14 1392.75,1845.52C1397.87,1847.16 1403.46,1848.89 1409.63,1850.68C1432.27,1857.25 1439.33,1857.89 1436.88,1858.9Z" style="fill:rgb(251,174,97);fill-rule:nonzero;"/>
        </g>
        <g transform="matrix(4.16667,0,0,4.16667,78.6163,-15.723)">
            <path d="M1366.13,1836.32C1367.41,1836.79 1368.73,1837.27 1370.09,1837.76C1368.93,1839.26 1367.56,1841.1 1366.33,1842.95C1364.54,1845.67 1365.3,1840.54 1366.13,1836.32Z" style="fill:rgb(242,131,86);fill-rule:nonzero;"/>
        </g>
        <g transform="matrix(4.16667,0,0,4.16667,78.6163,-15.723)">
            <path d="M1378.51,1840.75C1379.48,1841.09 1380.47,1841.43 1381.48,1841.78C1380.31,1843.22 1379.14,1844.54 1378.36,1845.02C1377.14,1845.76 1377.74,1843.28 1378.51,1840.75Z" style="fill:rgb(242,131,86);fill-rule:nonzero;"/>
        </g>
        <g transform="matrix(4.16667,0,0,4.16667,78.6163,-15.723)">
            <path d="M1392.75,1845.52C1391.6,1846.71 1390.6,1847.62 1390.07,1847.92C1389.16,1848.43 1389.1,1846.63 1389.29,1844.4C1390.41,1844.77 1391.57,1845.14 1392.75,1845.52Z" style="fill:rgb(242,131,86);fill-rule:nonzero;"/>
        </g>
        <g transform="matrix(4.16667,0,0,4.16667,78.6163,-15.723)">
            <path d="M1340.74,1857.34C1340.74,1857.34 1321.33,1824.65 1323.94,1834.35C1326.56,1844.05 1333.27,1842 1320.58,1837.52C1307.89,1833.04 1306.4,1837.34 1311.25,1840.7C1316.1,1844.05 1309.76,1837.52 1300.43,1841.44C1291.1,1845.36 1289.98,1847.41 1295.2,1848.72C1300.43,1850.03 1311.44,1848.91 1311.44,1848.91C1311.44,1848.91 1298.19,1852.34 1303.79,1853.05C1309.39,1853.76 1316.42,1850.69 1316.42,1850.69C1316.42,1850.69 1309.57,1854.32 1314.61,1853.95C1319.65,1853.57 1321.7,1851.74 1326.18,1850.69C1330.66,1849.65 1332.9,1850.59 1336.07,1853.95L1339.25,1857.3L1340.74,1857.34Z" style="fill:rgb(84,179,99);fill-rule:nonzero;"/>
        </g>
        <g transform="matrix(4.16667,0,0,4.16667,78.6163,-15.723)">
            <path d="M1325.62,1853.05C1322.85,1853.71 1327.33,1856.17 1327.97,1856.52C1327.14,1856.08 1319.48,1852.25 1313.3,1855.16C1306.77,1858.24 1303.79,1861.99 1307.15,1861.79C1308.08,1861.74 1309.02,1861.44 1309.88,1861.03C1307.22,1863.06 1304.12,1865.85 1303.6,1868.13C1302.67,1872.23 1303.04,1876.9 1307.71,1873.54C1312.37,1870.18 1318.57,1862.9 1318.57,1862.9C1318.57,1862.9 1314.87,1868.5 1318.57,1867.2C1322.26,1865.89 1327.49,1861.63 1327.49,1861.63C1327.49,1861.63 1326.18,1862.9 1328.79,1862.72C1331.41,1862.53 1330.75,1856.09 1334.67,1856.75C1338.59,1857.4 1343.07,1858.26 1343.07,1858.26L1344.1,1857.34C1344.1,1857.34 1328.61,1852.34 1325.62,1853.05Z" style="fill:rgb(56,142,119);fill-rule:nonzero;"/>
        </g>
        <g transform="matrix(4.16667,0,0,4.16667,78.6163,-15.723)">
            <path d="M1449.54,1862.94C1446.93,1864.57 1418.56,1871.36 1356.6,1867.03C1356.6,1867.03 1339.43,1868.49 1338.69,1858.88C1337.94,1849.26 1342.05,1847.03 1356.6,1849.64C1358.97,1850.07 1361.44,1850.51 1364.03,1850.98C1365.59,1851.27 1367.19,1851.55 1368.85,1851.85C1372.06,1852.42 1375.47,1853.02 1379.09,1853.62C1380.26,1853.82 1381.47,1854.02 1382.69,1854.21C1385.69,1854.7 1388.83,1855.19 1392.15,1855.68C1393.52,1855.88 1394.91,1856.08 1396.34,1856.29C1402.53,1857.17 1409.28,1858.04 1416.69,1858.88C1443.94,1861.96 1452.15,1861.3 1449.54,1862.94Z" style="fill:rgb(242,131,86);fill-rule:nonzero;"/>
        </g>
        <g transform="matrix(4.16667,0,0,4.16667,78.6163,-15.723)">
            <path d="M1364.03,1850.98C1365.59,1851.27 1367.19,1851.55 1368.85,1851.85C1367.81,1853.8 1366.6,1856.17 1365.56,1858.54C1364.04,1862 1363.91,1855.98 1364.03,1850.98Z" style="fill:rgb(197,63,82);fill-rule:nonzero;"/>
        </g>
        <g transform="matrix(4.16667,0,0,4.16667,78.6163,-15.723)">
            <path d="M1379.09,1853.62C1380.26,1853.82 1381.47,1854.02 1382.69,1854.21C1381.63,1856.1 1380.55,1857.84 1379.75,1858.54C1378.5,1859.63 1378.7,1856.68 1379.09,1853.62Z" style="fill:rgb(197,63,82);fill-rule:nonzero;"/>
        </g>
        <g transform="matrix(4.16667,0,0,4.16667,78.6163,-15.723)">
            <path d="M1396.34,1856.29C1395.26,1857.88 1394.29,1859.12 1393.74,1859.57C1392.8,1860.33 1392.38,1858.28 1392.15,1855.68C1393.52,1855.88 1394.91,1856.08 1396.34,1856.29Z" style="fill:rgb(197,63,82);fill-rule:nonzero;"/>
        </g>
        <g transform="matrix(4.16667,0,0,4.16667,78.6163,-15.723)">
            <path d="M1601.33,1397.92C1592.72,1385.68 1583.44,1367.41 1589.46,1351.28C1597.53,1329.67 1621.89,1316.85 1631.88,1312.38C1607.57,1329.93 1599.15,1374.81 1601.33,1397.92ZM1755.42,1342.68C1755.42,1342.68 1756.26,1351.36 1750.66,1352.48C1746.96,1353.22 1741.96,1342.42 1739,1335.04C1738.47,1332.65 1737.66,1330.41 1736.51,1328.37C1735.95,1327.4 1735.33,1326.48 1734.61,1325.6C1719.68,1307.31 1699.53,1310.67 1699.53,1310.67C1699.53,1310.67 1687.21,1295.74 1645.03,1306.19C1641.81,1306.99 1638.78,1308.22 1635.94,1309.79L1635.66,1309C1635.29,1309.13 1598.35,1322.65 1587.89,1350.69C1583.52,1362.38 1586.27,1376.91 1595.85,1392.71C1597.79,1395.9 1599.82,1398.84 1601.77,1401.45C1602.45,1405.73 1603.57,1408.96 1605.1,1410.7C1615.55,1422.65 1606.59,1433.1 1606.59,1433.1L1613.31,1429.21C1613.31,1429.21 1614.05,1435.71 1609.2,1440.5C1604.35,1445.29 1594.27,1435.14 1594.27,1435.14C1594.27,1435.14 1596.14,1439.44 1604.72,1447.65C1613.31,1455.85 1627.36,1447.65 1627.36,1447.65L1718.94,1422.65C1718.94,1422.65 1735.36,1417.42 1731.25,1400.62C1729.94,1395.23 1731.35,1387.45 1733.38,1378.77C1739.27,1386.91 1748.05,1381.4 1757.94,1370.67C1771.1,1356.39 1755.42,1342.68 1755.42,1342.68Z" style="fill:rgb(25,33,63);fill-rule:nonzero;"/>
        </g>
        <g transform="matrix(4.16667,0,0,4.16667,78.6163,-15.723)">
            <path d="M1726.31,1366.75C1726.31,1366.75 1731.35,1387.19 1726.31,1398.1C1721.27,1409.02 1723.23,1416.02 1722.11,1424.14C1720.99,1432.26 1707.83,1461.09 1703.07,1461.65C1698.31,1462.21 1684.6,1460.81 1681.52,1464.73C1678.44,1468.65 1677.32,1485.17 1684.32,1493C1691.32,1500.84 1693.38,1501.54 1693.38,1501.54C1693.38,1501.54 1683.76,1516.8 1670.32,1518.76C1656.88,1520.72 1635.61,1524.64 1627.77,1518.76C1619.93,1512.88 1602.01,1480.44 1602.01,1480.44C1602.01,1480.44 1618.81,1482.65 1623.29,1474.81C1627.77,1466.97 1628.05,1445.97 1626.65,1440.66C1625.25,1435.34 1625.25,1425.26 1629.73,1428.06C1634.21,1430.86 1639.81,1420.78 1635.89,1416.3C1631.97,1411.82 1627.49,1409.58 1624.13,1400.34C1620.77,1391.11 1634.49,1379.63 1642.89,1385.51C1651.29,1391.39 1649.05,1404.82 1651.85,1401.18C1654.64,1397.54 1652.69,1381.59 1659.4,1378.23C1666.12,1374.87 1680.96,1374.87 1687.68,1368.71C1694.4,1362.55 1695.79,1360.87 1695.79,1360.87C1695.79,1360.87 1684.04,1372.63 1691.6,1374.31C1699.15,1375.99 1724.35,1363.95 1726.31,1366.75Z" style="fill:rgb(247,158,134);fill-rule:nonzero;"/>
        </g>
        <g transform="matrix(4.16667,0,0,4.16667,78.6163,-15.723)">
            <path d="M1688.88,1462.13C1688.88,1462.13 1674.52,1462.21 1669.76,1460.81C1665,1459.41 1647.93,1452.69 1645.41,1447.37C1642.89,1442.05 1642.61,1437.86 1642.61,1437.86C1642.61,1437.86 1640.93,1448.49 1650.17,1470.61C1659.4,1492.72 1675.95,1506.81 1674.53,1499.91C1673.12,1493 1670.76,1459.54 1688.88,1462.13Z" style="fill:rgb(197,63,82);fill-rule:nonzero;"/>
        </g>
        <g transform="matrix(4.16667,0,0,4.16667,78.6163,-15.723)">
            <path d="M1683.19,1394.84C1682.59,1398.25 1680.45,1400.73 1678.41,1400.37C1676.38,1400.01 1675.22,1396.95 1675.83,1393.53C1676.43,1390.11 1678.57,1387.64 1680.61,1388C1682.64,1388.36 1683.8,1391.42 1683.19,1394.84Z" style="fill:rgb(25,33,63);fill-rule:nonzero;"/>
        </g>
        <g transform="matrix(4.16667,0,0,4.16667,78.6163,-15.723)">
            <path d="M1714.41,1403.52C1713.8,1406.93 1711.66,1409.41 1709.63,1409.05C1707.59,1408.69 1706.44,1405.63 1707.04,1402.21C1707.65,1398.79 1709.79,1396.32 1711.82,1396.68C1713.86,1397.04 1715.02,1400.1 1714.41,1403.52Z" style="fill:rgb(25,33,63);fill-rule:nonzero;"/>
        </g>
        <g transform="matrix(4.16667,0,0,4.16667,78.6163,-15.723)">
            <path d="M1693.62,1427.08C1693.36,1427.08 1693.11,1426.96 1692.94,1426.73C1692.67,1426.36 1692.75,1425.83 1693.13,1425.56C1695.36,1423.92 1696.96,1422.03 1696.8,1421.55C1695.63,1419.96 1693.63,1416.12 1692.89,1413.75C1692.09,1411.18 1696.05,1406.67 1696.85,1405.8C1697.17,1405.45 1697.7,1405.43 1698.04,1405.74C1698.38,1406.06 1698.41,1406.59 1698.09,1406.93C1696.42,1408.76 1694.12,1412.04 1694.5,1413.25C1695.17,1415.41 1697.07,1419.08 1698.15,1420.57C1699.61,1422.57 1695.82,1425.67 1694.12,1426.92C1693.97,1427.03 1693.79,1427.08 1693.62,1427.08Z" style="fill:rgb(197,63,82);fill-rule:nonzero;"/>
        </g>
        <g transform="matrix(4.16667,0,0,4.16667,78.6163,-15.723)">
            <path d="M1692.85,1444.01C1691.48,1444.01 1689.86,1443.89 1687.96,1443.58C1679.89,1442.26 1676.94,1435.25 1676.82,1434.95C1676.65,1434.52 1676.85,1434.03 1677.28,1433.86C1677.71,1433.68 1678.2,1433.89 1678.38,1434.32C1678.41,1434.4 1681.12,1440.76 1688.23,1441.93C1695.39,1443.1 1698.09,1441.38 1698.11,1441.37C1698.49,1441.1 1699.02,1441.19 1699.28,1441.57C1699.55,1441.95 1699.46,1442.48 1699.08,1442.74C1698.98,1442.81 1697.19,1444.01 1692.85,1444.01Z" style="fill:rgb(197,63,82);fill-rule:nonzero;"/>
        </g>
        <g transform="matrix(4.16667,0,0,4.16667,78.6163,-15.723)">
            <path d="M1675.6,1383.41C1677.64,1382.57 1679.73,1382.22 1681.94,1382.39C1683.02,1382.47 1683.01,1380.79 1681.94,1380.71C1679.6,1380.54 1677.32,1380.89 1675.15,1381.79C1674.17,1382.2 1674.6,1383.82 1675.6,1383.41Z" style="fill:rgb(25,33,63);fill-rule:nonzero;"/>
        </g>
        <g transform="matrix(4.16667,0,0,4.16667,78.6163,-15.723)">
            <path d="M1712.17,1390.8C1714.07,1390.88 1715.74,1391.9 1716.71,1393.52C1717.27,1394.45 1718.72,1393.6 1718.16,1392.67C1716.88,1390.53 1714.66,1389.23 1712.17,1389.12C1711.09,1389.08 1711.09,1390.76 1712.17,1390.8Z" style="fill:rgb(25,33,63);fill-rule:nonzero;"/>
        </g>
        <g transform="matrix(4.16667,0,0,4.16667,78.6163,-15.723)">
            <path d="M1599.5,1480.29C1599.5,1480.29 1607.06,1480.13 1608.74,1483.76C1610.41,1487.4 1606.5,1501.96 1639.53,1507.56C1672.56,1513.16 1685.16,1496.36 1691.88,1498.6C1698.59,1500.84 1657.72,1611.14 1645.69,1620.65C1633.65,1630.17 1582.14,1609.46 1581.58,1607.78C1581.02,1606.1 1599.5,1480.29 1599.5,1480.29Z" style="fill:rgb(230,236,247);fill-rule:nonzero;"/>
        </g>
        <g transform="matrix(4.16667,0,0,4.16667,78.6163,-15.723)">
            <path d="M1866.52,1520.41C1866.52,1520.41 1876.07,1515.12 1877.47,1510.08L1878.87,1505.04C1878.87,1505.04 1891.75,1510.92 1897.07,1507.56C1902.39,1504.2 1913.3,1481.25 1913.3,1481.25C1913.3,1481.25 1923.66,1497.76 1916.94,1509.52C1910.23,1521.28 1899.31,1522.12 1895.67,1525.48C1892.03,1528.83 1882.51,1539.75 1882.51,1539.75L1866.52,1520.41Z" style="fill:rgb(247,158,134);fill-rule:nonzero;"/>
        </g>
        <g transform="matrix(4.16667,0,0,4.16667,78.6163,-15.723)">
            <path d="M1890.63,1545.07C1886.71,1554.03 1838,1618.97 1800.49,1650.33C1762.98,1681.68 1740.58,1688.4 1731.07,1680.56C1721.55,1672.72 1712.03,1646.97 1712.03,1646.97L1709.79,1672.16C1709.79,1672.16 1665.56,1640.81 1667.8,1616.17C1668.2,1611.77 1669.01,1604.88 1670.15,1596.6C1675.39,1558.56 1687.56,1491.18 1698.59,1500.84C1698.59,1500.84 1743.38,1512.04 1746.74,1519.88C1750.1,1527.72 1751.78,1619.53 1760.18,1618.97C1768.58,1618.41 1816.73,1575.3 1832.96,1552.35C1849.2,1529.39 1857.6,1515.4 1862.64,1518.2C1867.67,1521 1894.55,1536.11 1890.63,1545.07Z" style="fill:rgb(230,236,247);fill-rule:nonzero;"/>
        </g>
        <g transform="matrix(4.16667,0,0,4.16667,78.6163,-15.723)">
            <path d="M1711.11,1657.32C1708.93,1651.6 1703.29,1650.08 1697.66,1644.73C1690.2,1637.63 1675.26,1624.2 1673.4,1605.54C1673.31,1604.68 1673.3,1603.68 1673.34,1602.54C1677.97,1610.98 1686.7,1626.12 1693,1632.41C1693.74,1633.15 1694.43,1633.49 1695.07,1633.49C1702.22,1633.49 1703.63,1591.73 1703.63,1591.73L1712.03,1646.97L1711.11,1657.32Z" style="fill:rgb(173,185,222);fill-rule:nonzero;"/>
        </g>
        <g transform="matrix(4.16667,0,0,4.16667,78.6163,-15.723)">
            <path d="M1706.34,1706.13C1705.65,1716.72 1705.53,1729.8 1706.62,1746.25C1709.98,1797.01 1712.03,1867.03 1712.03,1867.03L1529.29,1867.03C1529.29,1867.03 1537.69,1757.86 1536.85,1712.51C1536.74,1706.57 1536.75,1700.64 1536.83,1694.83C1537.09,1676.66 1538.18,1659.59 1539.26,1646.63C1539.89,1639.01 1540.52,1632.8 1540.96,1628.63L1540.97,1628.62C1541.38,1624.83 1541.65,1622.71 1541.65,1622.71L1541.65,1622.7C1541.98,1622.23 1563.37,1591.89 1573,1564.85C1582.41,1538.42 1588.31,1482.84 1588.66,1479.53C1588.67,1479.42 1588.68,1479.37 1588.68,1479.37C1588.68,1479.37 1605.84,1474.51 1605.1,1479.37C1604.35,1484.23 1586.06,1568.58 1595.39,1585.76C1604.72,1602.92 1637.57,1617.12 1652.5,1591.73C1667.43,1566.35 1678.25,1506.78 1686.09,1498.68C1693.93,1490.58 1701.02,1498.2 1701.39,1498.68C1701.77,1499.16 1671.54,1586.89 1673.4,1605.54C1675.26,1624.2 1690.2,1637.63 1697.66,1644.73C1705.13,1651.82 1712.59,1652.19 1712.03,1664.51C1711.66,1672.83 1707.78,1684.06 1706.34,1706.13Z" style="fill:rgb(53,68,94);fill-rule:nonzero;"/>
        </g>
        <g transform="matrix(4.16667,0,0,4.16667,78.6163,-15.723)">
            <path d="M1582.93,1699.49C1582.93,1699.49 1613.89,1710.83 1637.09,1709.15L1660.3,1707.47C1660.3,1707.47 1667.02,1780.51 1655.26,1790.18C1643.5,1799.85 1576.32,1797.33 1572.12,1786.41C1567.93,1775.49 1573.51,1696.45 1582.93,1699.49Z" style="fill:rgb(95,115,146);fill-rule:nonzero;"/>
        </g>
        <g transform="matrix(4.16667,0,0,4.16667,78.6163,-15.723)">
            <path d="M1712.03,1867.03L1529.29,1867.03C1529.29,1867.03 1530.55,1850.68 1532.05,1828L1534.42,1842.18C1535.14,1846.46 1539.39,1849.64 1544.4,1849.64L1695.32,1849.64C1700.39,1849.64 1704.67,1846.38 1705.31,1842.03L1706.55,1833.61L1709.96,1810.44C1711.29,1841.69 1712.03,1867.03 1712.03,1867.03ZM1653.25,1849.64L1655.12,1858.88L1671.17,1858.88L1666.69,1849.64L1653.25,1849.64ZM1567.77,1849.64L1563.29,1858.88L1579.34,1858.88L1581.21,1849.64L1567.77,1849.64ZM1706.22,1739.35L1662.08,1739.35C1662,1736.17 1661.89,1733.08 1661.76,1730.15L1662.21,1730.15C1686.33,1730.15 1704.9,1699.4 1704.9,1699.4C1704.9,1699.4 1705.43,1701.82 1706.34,1706.13C1706.2,1708.2 1706.09,1710.37 1706.01,1712.64C1705.91,1715.24 1705.84,1717.98 1705.82,1720.87C1705.82,1721.59 1705.81,1722.32 1705.81,1723.06C1705.81,1728.06 1705.94,1733.47 1706.22,1739.35ZM1572.26,1739.35L1536.6,1739.35C1536.8,1732.14 1536.91,1725.41 1536.91,1719.44C1536.91,1717 1536.89,1714.68 1536.85,1712.51C1536.79,1709.36 1536.77,1706.2 1536.77,1703.07C1536.77,1700.3 1536.79,1697.55 1536.83,1694.83C1537.09,1676.66 1538.18,1659.59 1539.26,1646.63C1539.89,1639.01 1540.52,1632.8 1540.96,1628.63L1540.97,1628.62C1540.97,1628.62 1559.12,1652.59 1576.18,1652.59C1576.37,1652.59 1576.55,1652.58 1576.74,1652.58C1577.31,1652.56 1577.88,1652.55 1578.44,1652.55C1594.63,1652.55 1604.18,1659.8 1607.91,1665.91C1610.68,1670.44 1613.52,1694.49 1613.37,1707.51C1597.05,1704.66 1582.93,1699.49 1582.93,1699.49C1582.75,1699.43 1582.58,1699.4 1582.4,1699.4C1579.65,1699.4 1577.24,1706.4 1575.34,1716.44C1564.84,1717.53 1556.17,1719.63 1556.17,1723.43C1556.17,1726.11 1563.05,1727.8 1573.42,1728.85C1572.98,1732.24 1572.6,1735.78 1572.26,1739.35Z" style="fill:rgb(37,48,66);fill-rule:nonzero;"/>
        </g>
        <g transform="matrix(4.16667,0,0,4.16667,78.6163,-15.723)">
            <path d="M1662.08,1739.35L1572.26,1739.35C1572.6,1735.78 1572.98,1732.24 1573.42,1728.85C1586.19,1730.14 1604.25,1730.46 1621.22,1730.46C1637.7,1730.46 1653.16,1730.16 1661.76,1730.15C1661.89,1733.08 1662,1736.17 1662.08,1739.35ZM1575.34,1716.44C1577.24,1706.4 1579.65,1699.4 1582.4,1699.4C1582.58,1699.4 1582.75,1699.43 1582.93,1699.49C1582.93,1699.49 1597.05,1704.66 1613.37,1707.51C1613.32,1712.51 1612.82,1715.88 1611.71,1715.88C1611.67,1715.88 1611.63,1715.88 1611.59,1715.87C1610.38,1715.63 1605.24,1715.39 1598.56,1715.39C1591.61,1715.39 1582.99,1715.65 1575.34,1716.44Z" style="fill:rgb(54,67,85);fill-rule:nonzero;"/>
        </g>
        <g transform="matrix(4.16667,0,0,4.16667,78.6163,-15.723)">
            <path d="M1917.42,1490.3C1917.42,1490.3 1915.08,1498.42 1911.16,1501.59C1907.24,1504.76 1895.1,1515.96 1892.87,1515.21C1890.63,1514.46 1878.87,1505.04 1878.87,1505.04C1878.87,1505.04 1916.01,1484.68 1917.42,1490.3Z" style="fill:rgb(197,63,82);fill-rule:nonzero;"/>
        </g>
        <g transform="matrix(4.16667,0,0,4.16667,78.6163,-15.723)">
            <path d="M1933.55,1436.46C1933.55,1436.46 1924.59,1411.05 1916.01,1402.48C1907.43,1393.91 1899.59,1391.29 1899.59,1391.29L1886.96,1408.27C1886.96,1408.27 1892.87,1439.07 1908.17,1442.43C1923.48,1445.79 1933.55,1436.46 1933.55,1436.46Z" style="fill:rgb(251,174,97);fill-rule:nonzero;"/>
        </g>
        <g transform="matrix(4.16667,0,0,4.16667,78.6163,-15.723)">
            <path d="M1878.87,1505.04C1878.87,1505.04 1842.11,1495.43 1845.47,1492.07C1848.83,1488.71 1858.5,1462.21 1862.06,1445.79C1865.62,1429.36 1862.57,1401.74 1866.52,1402.49C1870.47,1403.24 1908.6,1413.31 1919.21,1423.02C1929.82,1432.72 1933.55,1434.22 1933.55,1436.46C1933.55,1438.7 1913.3,1481.25 1913.3,1481.25C1913.3,1481.25 1900.33,1509.52 1895.86,1510.5C1891.38,1511.48 1878.87,1505.04 1878.87,1505.04Z" style="fill:rgb(251,218,122);fill-rule:nonzero;"/>
        </g>
        <g transform="matrix(4.16667,0,0,4.16667,78.6163,-15.723)">
            <path d="M1911.22,1494.18C1911.22,1494.18 1901.92,1499.89 1904.92,1483.13C1907.93,1466.37 1911.49,1460.23 1914.4,1461.82C1917.31,1463.41 1919.04,1464.16 1921.56,1475.36C1924.09,1486.55 1916.41,1493.94 1911.22,1494.18Z" style="fill:rgb(247,158,134);fill-rule:nonzero;"/>
        </g>
        <g transform="matrix(4.16667,0,0,4.16667,78.6163,-15.723)">
            <path d="M1874.21,1460.53C1874.21,1460.53 1870.29,1438.88 1876.45,1431.6C1882.6,1424.33 1886.74,1436.08 1891.02,1434.96C1895.29,1433.84 1899.1,1433.05 1900.89,1436.46C1902.68,1439.86 1902.67,1439.09 1908.88,1441.12C1915.08,1443.15 1914.14,1450.08 1911.72,1455.12C1909.29,1460.16 1896.6,1474.15 1894.92,1474.15C1893.24,1474.15 1874.39,1470.79 1874.21,1460.53Z" style="fill:rgb(251,174,97);fill-rule:nonzero;"/>
        </g>
        <g transform="matrix(4.16667,0,0,4.16667,78.6163,-15.723)">
            <path d="M1872.98,1469.12C1872.98,1469.12 1893.68,1476.02 1893.28,1479.38C1892.87,1482.74 1890.82,1483.58 1888.02,1483.16C1885.22,1482.74 1869.91,1475.09 1869.91,1474.15C1869.91,1473.22 1871.92,1468.75 1872.98,1469.12Z" style="fill:rgb(242,131,86);fill-rule:nonzero;"/>
        </g>
        <g transform="matrix(4.16667,0,0,4.16667,78.6163,-15.723)">
            <path d="M1884.28,1465.12C1884.28,1465.12 1893.8,1439.07 1896.04,1440.56C1898.28,1442.05 1884.47,1472.87 1884.28,1465.12Z" style="fill:rgb(242,131,86);fill-rule:nonzero;"/>
        </g>
        <g transform="matrix(4.16667,0,0,4.16667,78.6163,-15.723)">
            <path d="M1881.6,1464.64C1881.6,1464.64 1887.27,1439.07 1884.84,1436.46C1882.42,1433.84 1880.37,1435.15 1880.18,1440.19C1879.99,1445.23 1878.17,1468.74 1881.6,1464.64Z" style="fill:rgb(242,131,86);fill-rule:nonzero;"/>
        </g>
        <g transform="matrix(4.16667,0,0,4.16667,78.6163,-15.723)">
            <path d="M1889.4,1467.64C1889.4,1467.64 1906.12,1446.63 1907.8,1450.13C1909.48,1453.63 1887.24,1472.13 1889.4,1467.64Z" style="fill:rgb(242,131,86);fill-rule:nonzero;"/>
        </g>
        <g transform="matrix(4.16667,0,0,4.16667,78.6163,-15.723)">
            <path d="M1530.13,1786.05C1522.72,1786.05 1514.76,1782.49 1509.61,1776.7C1505.31,1771.85 1503.69,1766.15 1505.07,1760.63C1508.32,1747.65 1523.49,1748.91 1529.2,1749.39C1529.88,1749.44 1530.47,1749.49 1530.79,1749.49L1530.79,1752.29C1530.36,1752.29 1529.78,1752.25 1528.97,1752.18C1520.35,1751.46 1510.15,1751.85 1507.79,1761.31C1506.64,1765.9 1508.03,1770.71 1511.71,1774.84C1516.83,1780.62 1525.41,1784.01 1532.57,1783.1L1532.92,1785.87C1532.01,1785.99 1531.07,1786.05 1530.13,1786.05Z" style="fill:rgb(53,68,94);fill-rule:nonzero;"/>
        </g>
        <g transform="matrix(4.16667,0,0,4.16667,78.6163,-15.723)">
            <path d="M1707.69,1786.05C1715.11,1786.05 1723.07,1782.49 1728.21,1776.7C1732.52,1771.85 1734.13,1766.15 1732.75,1760.63C1729.51,1747.65 1714.34,1748.91 1708.63,1749.39C1707.94,1749.44 1707.35,1749.49 1707.04,1749.49L1707.04,1752.29C1707.47,1752.29 1708.05,1752.25 1708.86,1752.18C1717.48,1751.46 1727.67,1751.85 1730.04,1761.31C1731.18,1765.9 1729.79,1770.71 1726.12,1774.84C1720.99,1780.62 1712.41,1784.01 1705.26,1783.1L1704.9,1785.87C1705.82,1785.99 1706.75,1786.05 1707.69,1786.05Z" style="fill:rgb(53,68,94);fill-rule:nonzero;"/>
        </g>
        <g transform="matrix(4.16667,0,0,4.16667,78.6163,-15.723)">
            <path d="M1596.87,1665.91C1596.6,1661.64 1594.56,1658.08 1589.42,1655.92C1580.08,1652.02 1556.83,1649.75 1539.26,1646.63C1526.62,1644.38 1516.91,1641.69 1517.38,1637.63C1518.5,1627.93 1531.94,1590.98 1534.93,1599.94C1537.91,1608.9 1541.65,1622.71 1541.65,1622.7C1541.98,1622.23 1563.37,1591.89 1573,1564.85C1582.41,1538.42 1588.31,1482.84 1588.66,1479.53C1578.21,1479.09 1562.54,1479.32 1552.47,1483.49C1541.44,1488.05 1533.25,1500.9 1526.74,1510.29C1517.44,1523.72 1509.96,1538.82 1500.24,1551.69C1493.82,1560.18 1488.16,1569.28 1482.62,1578.36C1471.24,1597.02 1455.48,1619.1 1451.05,1640.9C1450.82,1642.04 1450.57,1643.18 1450.57,1644.35C1450.57,1659.66 1464.01,1673.1 1474.09,1678.7C1479.35,1681.62 1509.11,1689.65 1536.83,1694.83C1562.14,1699.56 1585.77,1701.92 1587.56,1695.86C1588.04,1694.22 1588.7,1692.45 1589.44,1690.59C1592.61,1682.69 1597.35,1673.26 1596.87,1665.91Z" style="fill:rgb(230,236,247);fill-rule:nonzero;"/>
        </g>
        <g transform="matrix(4.16667,0,0,4.16667,78.6163,-15.723)">
            <path d="M1718.99,1749.15L1706.55,1833.61L1705.31,1842.03C1704.67,1846.38 1700.39,1849.64 1695.32,1849.64L1544.4,1849.64C1539.39,1849.64 1535.14,1846.46 1534.42,1842.18L1518.86,1749.3C1518.79,1748.84 1518.75,1748.39 1518.76,1747.95C1518.81,1743.27 1523.23,1739.35 1528.84,1739.35L1708.99,1739.35C1715.06,1739.35 1719.75,1743.95 1718.99,1749.15Z" style="fill:rgb(230,236,247);fill-rule:nonzero;"/>
        </g>
        <g transform="matrix(4.16667,0,0,4.16667,78.6163,-15.723)">
            <path d="M1599,1606.95C1595.84,1607.38 1592.74,1603.83 1592.08,1599.01C1591.43,1594.19 1593.46,1589.94 1596.63,1589.51C1599.79,1589.08 1602.9,1592.63 1603.55,1597.45C1604.21,1602.26 1602.17,1606.52 1599,1606.95ZM1622.94,1704.17C1622.94,1704.17 1610.7,1607.13 1606.06,1590.84C1601.43,1574.54 1585.5,1579.12 1583.2,1589.26C1580.9,1599.4 1593.96,1624.28 1597.29,1644.54C1600.61,1664.8 1612.93,1739.01 1612.93,1739.01L1628.86,1739.35L1622.94,1704.17Z" style="fill:rgb(251,218,122);fill-rule:nonzero;"/>
        </g>
        <g transform="matrix(4.16667,0,0,4.16667,78.6163,-15.723)">
            <path d="M1623.3,1706.31L1614.05,1695.4C1614.05,1695.4 1607.34,1700.71 1601.74,1695.4C1598.33,1692.15 1593.05,1691 1589.44,1690.59C1592.61,1682.69 1597.35,1673.26 1596.87,1665.91C1602,1667.51 1611.38,1670.89 1615.73,1675.24C1621.89,1681.4 1626.09,1682.71 1626.37,1688.02C1626.65,1693.34 1623.3,1706.31 1623.3,1706.31Z" style="fill:rgb(247,158,134);fill-rule:nonzero;"/>
        </g>
        <g transform="matrix(4.16667,0,0,4.16667,78.6163,-15.723)">
            <path d="M1688.16,1858.88L1545.55,1858.88C1543.34,1858.88 1541.55,1860.67 1541.55,1862.88L1541.55,1863C1541.55,1865.21 1543.34,1867 1545.55,1867L1688.16,1867C1690.36,1867 1692.16,1865.21 1692.16,1863L1692.16,1862.88C1692.16,1860.67 1690.36,1858.88 1688.16,1858.88Z" style="fill:rgb(230,236,247);fill-rule:nonzero;"/>
        </g>
        <g transform="matrix(4.16667,0,0,4.16667,78.6163,-15.723)">
            <path d="M1563.29,1858.88L1567.77,1849.64L1581.21,1849.64L1579.34,1858.88L1563.29,1858.88Z" style="fill:rgb(178,192,213);fill-rule:nonzero;"/>
        </g>
        <g transform="matrix(4.16667,0,0,4.16667,78.6163,-15.723)">
            <path d="M1671.17,1858.88L1666.69,1849.64L1653.25,1849.64L1655.12,1858.88L1671.17,1858.88Z" style="fill:rgb(178,192,213);fill-rule:nonzero;"/>
        </g>
        <g transform="matrix(4.16667,0,0,4.16667,78.6163,-15.723)">
            <path d="M1640.05,1854.26L1591.61,1854.26C1590.5,1854.26 1589.61,1855.15 1589.61,1856.26L1589.61,1856.88C1589.61,1857.98 1590.5,1858.88 1591.61,1858.88L1640.05,1858.88C1641.15,1858.88 1642.05,1857.98 1642.05,1856.88L1642.05,1856.26C1642.05,1855.15 1641.15,1854.26 1640.05,1854.26Z" style="fill:rgb(135,157,198);fill-rule:nonzero;"/>
        </g>
        <g transform="matrix(4.16667,0,0,4.16667,78.6163,-15.723)">
            <path d="M1695.32,1849.64L1544.4,1849.64C1539.39,1849.64 1535.14,1846.46 1534.42,1842.18L1519.35,1752.23L1518.89,1749.44L1518.86,1749.3C1518.8,1748.9 1518.76,1748.51 1518.76,1748.11L1518.76,1747.95C1528.44,1783.58 1555.16,1833.61 1628.86,1833.61L1706.55,1833.61L1705.31,1842.03C1704.67,1846.38 1700.39,1849.64 1695.32,1849.64Z" style="fill:rgb(206,216,231);"/>
        </g>
        <g transform="matrix(4.16667,0,0,4.16667,78.6163,-15.723)">
            <path d="M2222.02,1871.15L2222.02,1877.25C2222.02,1879.52 2220.17,1881.37 2217.9,1881.37L1282.1,1881.37C1279.83,1881.37 1277.98,1879.52 1277.98,1877.25L1277.98,1871.15C1277.98,1868.87 1279.83,1867.03 1282.1,1867.03L2217.9,1867.03C2220.17,1867.03 2222.02,1868.87 2222.02,1871.15Z" style="fill:rgb(230,236,247);fill-rule:nonzero;"/>
        </g>
        <g transform="matrix(4.16667,0,0,4.16667,78.6163,-15.723)">
            <path d="M1848.24,1904.54L1367.65,1904.54C1364.71,1904.54 1362.32,1902.15 1362.32,1899.2C1362.32,1896.26 1364.71,1893.87 1367.65,1893.87L1848.24,1893.87C1851.19,1893.87 1853.58,1896.26 1853.58,1899.2C1853.58,1902.15 1851.19,1904.54 1848.24,1904.54Z" style="fill:rgb(230,236,247);fill-rule:nonzero;"/>
        </g>
        <g transform="matrix(4.16667,0,0,4.16667,78.6163,-15.723)">
            <path d="M2114.07,1904.54L1896.5,1904.54C1893.55,1904.54 1891.16,1902.15 1891.16,1899.2C1891.16,1896.26 1893.55,1893.87 1896.5,1893.87L2114.07,1893.87C2117.01,1893.87 2119.4,1896.26 2119.4,1899.2C2119.4,1902.15 2117.01,1904.54 2114.07,1904.54Z" style="fill:rgb(230,236,247);fill-rule:nonzero;"/>
        </g>
        <g transform="matrix(4.16667,0,0,4.16667,78.6163,-15.723)">
            <path d="M2222.02,1871.15L2222.02,1873.99L1277.98,1873.99L1277.98,1871.15C1277.98,1868.87 1279.83,1867.03 1282.1,1867.03L2217.9,1867.03C2220.17,1867.03 2222.02,1868.87 2222.02,1871.15Z" style="fill:rgb(178,192,213);fill-rule:nonzero;"/>
        </g>
        <g transform="matrix(4.16667,0,0,4.16667,78.6163,-15.723)">
            <path d="M2106.69,1602.65C2103.32,1622 2084.39,1672.88 2084.81,1699.38C2085.24,1725.88 2100.74,1779.03 2102.1,1811.2C2102.83,1828.51 2102.78,1843.36 2102.57,1853.38C2102.39,1861.98 2102.1,1867.03 2102.1,1867.03L1917.99,1867.03C1917.99,1867.03 1920.83,1786.59 1926.51,1748.74C1926.86,1746.34 1927.25,1744.05 1927.65,1741.86C1932.03,1717.9 1938.5,1705.85 1940.13,1692.79C1940.7,1688.21 1940.67,1683.52 1939.75,1678.14C1938.96,1673.51 1937.75,1669.11 1936.48,1664.68C1936.03,1663.11 1935.57,1661.54 1935.12,1659.95L1935.12,1659.94C1930.74,1644.55 1927.01,1627.61 1937.86,1598.38C1940.71,1590.72 1944.11,1582.93 1948.01,1575.32C1964.52,1543.14 1989.87,1514.18 2018.69,1511.84C2019.33,1511.78 2019.98,1511.74 2020.62,1511.72C2057.09,1510.28 2084.81,1508.33 2084.81,1508.33C2084.81,1508.33 2087.61,1508.45 2091.61,1509.46C2099.82,1511.52 2113.09,1517.33 2117.62,1533.54C2124.35,1557.65 2110.05,1583.3 2106.69,1602.65Z" style="fill:rgb(230,236,247);fill-rule:nonzero;"/>
        </g>
        <g transform="matrix(4.16667,0,0,4.16667,78.6163,-15.723)">
            <path d="M2140.2,1430.64C2138.46,1433.8 2135.06,1435.9 2130.12,1436.87C2116.57,1439.54 2103.62,1424.12 2099.75,1419.01C2099.97,1418.05 2100.17,1417.47 2100.18,1417.44L2100.19,1417.37C2107.2,1419.22 2129.73,1433.26 2141.57,1425.05C2141.56,1426.82 2141.22,1428.8 2140.2,1430.64ZM2098.59,1417.41L2098.48,1417.24C2098.6,1417.19 2098.76,1417.17 2098.94,1417.17C2098.9,1417.28 2098.85,1417.46 2098.79,1417.69C2098.66,1417.52 2098.6,1417.42 2098.59,1417.41ZM1977.25,1360.16C1976.44,1365.83 1976.34,1371.16 1976.72,1376.13C1974.41,1366.17 1970.01,1340.59 1982.97,1331.46C1994.07,1323.64 2003.92,1326.36 2009.15,1328.96C1997.76,1325.32 1981.41,1330.96 1977.25,1360.16ZM2128.66,1366.09C2110.89,1362.75 2102.26,1374.71 2099.16,1380.62C2100.9,1373.84 2105.34,1358.4 2110.79,1353.5C2117.88,1347.12 2124.14,1344.14 2124.2,1344.11C2124.51,1343.97 2124.65,1343.59 2124.5,1343.27C2124.35,1342.96 2123.98,1342.82 2123.66,1342.97C2123.4,1343.09 2117.19,1346.05 2109.94,1352.56C2103.89,1358.01 2099.24,1375 2097.69,1381.26C2097.22,1371.4 2093.35,1334.64 2061.79,1321.58C2028.53,1307.82 2015.86,1326.8 2013.83,1330.38C2012.56,1329.39 1998.46,1319 1982.25,1330.43C1965.35,1342.33 1976.08,1378.98 1976.54,1380.54C1976.62,1380.81 1976.88,1380.99 1977.15,1380.99L1977.24,1380.97C1977.97,1386.12 1979.2,1390.79 1980.63,1394.92C1978.49,1405.4 1977.01,1420.24 1981.71,1432.53C1987.53,1447.77 1998.64,1450.07 2004.83,1450.07C2007.46,1450.07 2009.21,1449.65 2009.26,1449.64C2009.6,1449.55 2009.8,1449.21 2009.72,1448.87C2009.63,1448.53 2009.29,1448.33 2008.95,1448.41C2008.77,1448.46 1990.79,1452.77 1982.88,1432.08C1978.58,1420.83 1979.59,1407.33 1981.47,1397.2C1985.93,1408.8 1991.77,1415.54 1991.77,1415.54L2060.84,1453.33C2060.84,1453.33 2075.98,1451.86 2084.81,1445.24C2089.73,1441.55 2093.08,1434.85 2095.19,1428.85C2094.96,1433.99 2095.84,1440.07 2099.77,1445.3C2108.14,1456.46 2110.35,1457.7 2110.58,1457.8L2110.83,1457.86C2111.06,1457.86 2111.28,1457.73 2111.39,1457.51C2111.55,1457.2 2111.42,1456.83 2111.13,1456.66C2111.04,1456.62 2108.88,1455.35 2100.78,1444.54C2093.87,1435.33 2097.05,1422.91 2098.26,1419.13L2098.4,1419.33C2097.68,1423.02 2097.18,1430.35 2102.92,1435.31C2103.03,1435.41 2103.18,1435.46 2103.33,1435.46C2103.5,1435.46 2103.68,1435.39 2103.8,1435.24C2104.03,1434.98 2104,1434.58 2103.74,1434.35C2099.01,1430.26 2098.92,1424.35 2099.44,1420.71C2103.71,1426.21 2114.58,1438.45 2126.87,1438.45C2128.02,1438.45 2129.19,1438.34 2130.36,1438.11C2135.69,1437.06 2139.37,1434.75 2141.31,1431.25C2142.65,1428.82 2142.93,1426.22 2142.83,1424.06C2156.04,1412.25 2151.84,1370.45 2128.66,1366.09Z" style="fill:rgb(25,33,63);fill-rule:nonzero;"/>
        </g>
        <g transform="matrix(4.16667,0,0,4.16667,78.6163,-15.723)">
            <path d="M2084.82,1508.33C2084.82,1508.33 2073.14,1510.85 2064.31,1516.53C2055.48,1522.21 2050.12,1531.04 2031.82,1533.25C2013.52,1535.46 2014.15,1524.42 2014.15,1524.42C2014.15,1524.42 2018.7,1518.35 2022.45,1506.51C2022.53,1506.28 2022.6,1506.04 2022.67,1505.81C2026.46,1493.5 2024.88,1470.62 2024.88,1470.62C2024.88,1470.62 2018.51,1472.18 2013.8,1472.82C2011.97,1473.06 2010.38,1473.18 2009.53,1473C2006.48,1472.37 1999.64,1460.7 1994.28,1450.6C1992.36,1446.97 1991.04,1443.27 1990.28,1439.49C1988.91,1432.75 1989.31,1425.78 1991.13,1418.62C1993.97,1407.44 1990.5,1400.44 1989.87,1384.04C1989.23,1367.64 2009.53,1351.55 2009.53,1351.55C2009.53,1351.55 2016.99,1366.06 2026.46,1380.35C2035.92,1394.65 2050.12,1396.97 2056.74,1402.65C2063.37,1408.33 2064.31,1402.34 2070.3,1402.65C2076.3,1402.97 2081.35,1408.01 2081.66,1418.62C2081.98,1429.21 2067.15,1433.57 2071.57,1437.98C2075.98,1442.4 2077.56,1441.45 2074.72,1446.19C2071.88,1450.92 2076.3,1461.96 2075.35,1476.78C2075.09,1480.97 2075.72,1485.3 2076.77,1489.36C2079.45,1499.71 2084.82,1508.33 2084.82,1508.33Z" style="fill:rgb(247,158,134);fill-rule:nonzero;"/>
        </g>
        <g transform="matrix(4.16667,0,0,4.16667,78.6163,-15.723)">
            <path d="M2024.88,1470.62C2024.88,1470.62 2053.9,1462.38 2057.37,1457.86C2060.84,1453.33 2061.51,1440.19 2061.51,1440.19C2061.51,1440.19 2064.94,1457.54 2054.85,1472.05C2044.75,1486.56 2024.47,1496.47 2024.47,1496.47L2024.88,1470.62Z" style="fill:rgb(197,63,82);fill-rule:nonzero;"/>
        </g>
        <g transform="matrix(4.16667,0,0,4.16667,78.6163,-15.723)">
            <path d="M2039.6,1407.81C2039.2,1407.81 2038.83,1407.56 2038.7,1407.16C2038.67,1407.06 2037.66,1404.48 2032.46,1403.37C2027.14,1402.23 2022.82,1406.05 2022.78,1406.09C2022.39,1406.44 2021.8,1406.41 2021.45,1406.02C2021.1,1405.64 2021.12,1405.04 2021.51,1404.69C2021.71,1404.5 2026.57,1400.17 2032.86,1401.52C2039.2,1402.88 2040.45,1406.41 2040.5,1406.56C2040.66,1407.06 2040.4,1407.59 2039.9,1407.76C2039.8,1407.79 2039.7,1407.81 2039.6,1407.81Z" style="fill:rgb(25,33,63);fill-rule:nonzero;"/>
        </g>
        <g transform="matrix(4.16667,0,0,4.16667,78.6163,-15.723)">
            <path d="M2006.58,1405.48C2006.24,1405.48 2005.93,1405.21 2005.83,1404.79C2005.83,1404.79 2005.23,1403 2001.48,1401.5C1997.79,1400.02 1996.38,1402.68 1996.37,1402.7C1996.14,1403.15 1995.66,1403.29 1995.29,1403.01C1994.92,1402.74 1994.8,1402.16 1995.03,1401.71C1995.11,1401.55 1997.11,1397.75 2001.98,1399.71C2006.57,1401.54 2007.28,1404 2007.34,1404.27C2007.46,1404.77 2007.22,1405.3 2006.8,1405.44L2006.58,1405.48Z" style="fill:rgb(25,33,63);fill-rule:nonzero;"/>
        </g>
        <g transform="matrix(4.16667,0,0,4.16667,78.6163,-15.723)">
            <path d="M2011.63,1433.41C2011.47,1433.41 2011.32,1433.35 2011.2,1433.23C2011.05,1433.09 2007.52,1429.72 2005.79,1427.67C2005.39,1427.2 2005.22,1426.7 2005.29,1426.17C2005.44,1424.93 2006.87,1423.91 2008.68,1422.62C2009.85,1421.78 2011.17,1420.83 2012.29,1419.71C2015.21,1416.79 2012.22,1411.7 2012.19,1411.65C2012.02,1411.35 2012.11,1410.97 2012.41,1410.79C2012.71,1410.61 2013.1,1410.71 2013.28,1411C2013.42,1411.25 2016.8,1416.99 2013.18,1420.61C2011.99,1421.8 2010.62,1422.78 2009.41,1423.64C2008.04,1424.62 2006.63,1425.63 2006.54,1426.33C2006.53,1426.43 2006.54,1426.6 2006.75,1426.85C2008.44,1428.85 2012.03,1432.29 2012.07,1432.32C2012.32,1432.56 2012.33,1432.96 2012.09,1433.21C2011.96,1433.34 2011.8,1433.41 2011.63,1433.41Z" style="fill:rgb(197,63,82);fill-rule:nonzero;"/>
        </g>
        <g transform="matrix(4.16667,0,0,4.16667,78.6163,-15.723)">
            <path d="M1996.3,1392.05C1997.25,1391.21 1998.36,1390.66 1999.59,1390.35C2000.77,1390.06 2000.27,1388.24 1999.09,1388.53C1997.54,1388.91 1996.16,1389.66 1994.96,1390.71C1994.05,1391.52 1995.39,1392.86 1996.3,1392.05Z" style="fill:rgb(25,33,63);fill-rule:nonzero;"/>
        </g>
        <g transform="matrix(4.16667,0,0,4.16667,78.6163,-15.723)">
            <path d="M2028.56,1391.45C2030.8,1392.03 2032.88,1392.9 2034.86,1394.08C2035.91,1394.71 2036.86,1393.07 2035.82,1392.45C2033.71,1391.18 2031.45,1390.24 2029.07,1389.63C2027.89,1389.32 2027.38,1391.15 2028.56,1391.45Z" style="fill:rgb(25,33,63);fill-rule:nonzero;"/>
        </g>
        <g transform="matrix(4.16667,0,0,4.16667,78.6163,-15.723)">
            <path d="M1979.39,1678.36C1978.64,1678.36 1978.04,1678.29 1977.61,1678.14C1970.98,1675.88 1953,1640.4 1953,1640.4L2112.99,1561.39C2112.99,1561.39 2095.44,1601.38 2062.07,1633.43C2030.9,1663.36 1990.03,1678.36 1979.39,1678.36Z" style="fill:rgb(173,185,222);fill-rule:nonzero;"/>
        </g>
        <g transform="matrix(4.16667,0,0,4.16667,78.6163,-15.723)">
            <path d="M1953,1709.9C1953,1709.9 1988.02,1724.41 2003.61,1723.15C2019.2,1721.89 2032.28,1715.58 2033,1729.46C2033.71,1743.34 2032.64,1794.09 2015.51,1802.15C1998.38,1810.21 1954.31,1808.77 1953,1799.71C1951.7,1790.65 1944.22,1710.53 1953,1709.9Z" style="fill:white;fill-rule:nonzero;"/>
        </g>
        <g transform="matrix(4.16667,0,0,4.16667,78.6163,-15.723)">
            <path d="M2001.22,1481.41C1999.59,1485.46 1997.89,1489.08 1997.89,1489.08L1975.88,1477.73C1975.88,1477.73 1976.44,1476.78 1977.25,1475.23C1985.85,1474.93 1996.32,1477.44 2001.22,1481.41Z" style="fill:rgb(247,158,134);fill-rule:nonzero;"/>
        </g>
        <g transform="matrix(4.16667,0,0,4.16667,78.6163,-15.723)">
            <path d="M2110.47,1571.14C2103.23,1595.47 2003.97,1651.5 1992.89,1658.45C1981.81,1665.4 1955.83,1667.57 1947.3,1635.43C1938.79,1603.29 1960.51,1490.36 1964.34,1480.8C1965.82,1477.13 1971.05,1475.45 1977.25,1475.23C1985.85,1474.93 1996.32,1477.44 2001.22,1481.41C2002.01,1482.04 2002.64,1482.7 2003.11,1483.4C2008.65,1491.66 1990.33,1592.86 1990.03,1598.51C1989.73,1604.16 2023.13,1580.27 2038.32,1568.54C2053.51,1556.81 2088.74,1529.32 2088.74,1529.32C2120.27,1515.28 2117.71,1546.82 2110.47,1571.14Z" style="fill:rgb(53,68,94);fill-rule:nonzero;"/>
        </g>
        <g transform="matrix(4.16667,0,0,4.16667,78.6163,-15.723)">
            <path d="M2091.61,1509.46C2069.5,1509.48 2059.11,1529.94 2049.91,1539.13C2038.97,1550.07 2009.95,1566.48 2002.8,1556.81C1995.65,1547.13 2018.69,1511.84 2018.69,1511.84C2019.75,1509.96 2021.01,1508.18 2022.45,1506.51C2021.86,1508.39 2021.24,1510.13 2020.62,1511.72C2017.37,1520.13 2014.15,1524.42 2014.15,1524.42C2014.15,1524.42 2013.52,1535.46 2031.82,1533.25C2050.12,1531.04 2055.48,1522.21 2064.31,1516.53C2073.14,1510.85 2084.81,1508.33 2084.81,1508.33C2084.81,1508.33 2087.61,1508.45 2091.61,1509.46Z" style="fill:rgb(53,68,94);fill-rule:nonzero;"/>
        </g>
        <g transform="matrix(4.16667,0,0,4.16667,78.6163,-15.723)">
            <path d="M1962.27,1784.39L2028.35,1792.23L2026.77,1803.27L1961.07,1793.19C1958.04,1792.72 1956.38,1789.39 1957.83,1786.69C1958.7,1785.08 1960.46,1784.17 1962.27,1784.39Z" style="fill:rgb(53,68,94);fill-rule:nonzero;"/>
        </g>
        <g transform="matrix(4.16667,0,0,4.16667,78.6163,-15.723)">
            <path d="M1939.64,1677.51C1939.44,1676.41 1939.22,1675.32 1938.99,1674.25C1939.22,1675.32 1939.44,1676.41 1939.64,1677.51ZM1936.69,1665.42C1936.62,1665.17 1936.55,1664.92 1936.48,1664.68C1936.03,1663.11 1935.57,1661.53 1935.12,1659.95C1935.12,1659.96 1935.12,1659.96 1935.13,1659.97C1935.57,1661.55 1936.03,1663.12 1936.48,1664.68C1936.55,1664.92 1936.62,1665.17 1936.69,1665.42Z" style="fill:rgb(187,194,227);fill-rule:nonzero;"/>
        </g>
        <g transform="matrix(4.16667,0,0,4.16667,78.6163,-15.723)">
            <path d="M1935.11,1712.64C1935.79,1710.43 1936.45,1708.34 1937.05,1706.32C1936.45,1708.34 1935.79,1710.43 1935.11,1712.64ZM1940.5,1687.92C1940.57,1684.85 1940.35,1681.64 1939.75,1678.14C1939.72,1677.93 1939.68,1677.72 1939.64,1677.51C1939.68,1677.72 1939.72,1677.93 1939.75,1678.14C1940.35,1681.64 1940.57,1684.85 1940.5,1687.92Z" style="fill:rgb(69,134,143);fill-rule:nonzero;"/>
        </g>
        <g transform="matrix(4.16667,0,0,4.16667,78.6163,-15.723)">
            <path d="M1928.7,1736.55C1928.84,1735.86 1928.99,1735.18 1929.13,1734.51C1928.99,1735.18 1928.84,1735.86 1928.7,1736.55Z" style="fill:rgb(173,185,222);fill-rule:nonzero;"/>
        </g>
        <g transform="matrix(4.16667,0,0,4.16667,78.6163,-15.723)">
            <path d="M1933.27,1718.66C1933.9,1716.55 1934.52,1714.55 1935.11,1712.64C1934.52,1714.55 1933.9,1716.55 1933.27,1718.66Z" style="fill:rgb(144,162,203);fill-rule:nonzero;"/>
        </g>
        <g transform="matrix(4.16667,0,0,4.16667,78.6163,-15.723)">
            <path d="M1927.57,1742.31C1927.6,1742.16 1927.62,1742.01 1927.65,1741.86C1927.99,1740.02 1928.34,1738.25 1928.7,1736.55C1928.34,1738.25 1927.99,1740.02 1927.65,1741.86C1927.63,1742.01 1927.6,1742.16 1927.57,1742.31Z" style="fill:rgb(187,194,227);fill-rule:nonzero;"/>
        </g>
        <g transform="matrix(4.16667,0,0,4.16667,78.6163,-15.723)">
            <path d="M2102.1,1867.03C2102.1,1867.03 2102.21,1865.22 2102.33,1861.91C2102.21,1865.22 2102.1,1867.03 2102.1,1867.03Z" style="fill:rgb(187,194,227);fill-rule:nonzero;"/>
        </g>
        <g transform="matrix(4.16667,0,0,4.16667,78.6163,-15.723)">
            <path d="M2102.1,1867.03L1917.99,1867.03L2102.1,1867.03Z" style="fill:rgb(144,162,203);fill-rule:nonzero;"/>
        </g>
        <g transform="matrix(4.16667,0,0,4.16667,78.6163,-15.723)">
            <path d="M2102.1,1867.03L1917.99,1867.03C1917.99,1867.03 1920.83,1786.59 1926.51,1748.74C1926.84,1746.5 1927.2,1744.36 1927.57,1742.31C1927.6,1742.16 1927.63,1742.01 1927.65,1741.86C1927.99,1740.02 1928.34,1738.25 1928.7,1736.55C1928.84,1735.86 1928.99,1735.18 1929.13,1734.51C1930.46,1728.5 1931.89,1723.31 1933.27,1718.66C1933.9,1716.55 1934.52,1714.55 1935.11,1712.64C1935.79,1710.43 1936.45,1708.34 1937.05,1706.32C1938.45,1701.58 1939.57,1697.24 1940.13,1692.79C1940.33,1691.19 1940.45,1689.58 1940.5,1687.92C1940.57,1684.85 1940.35,1681.64 1939.75,1678.14C1939.72,1677.93 1939.68,1677.72 1939.64,1677.51C1939.44,1676.41 1939.22,1675.32 1938.99,1674.25C1938.33,1671.26 1937.53,1668.34 1936.69,1665.42C1936.62,1665.17 1936.55,1664.92 1936.48,1664.68C1936.03,1663.12 1935.57,1661.55 1935.13,1659.97C1935.55,1660.8 1945.41,1679.98 1972.85,1696.02C2000.91,1712.42 2004.14,1716.21 1995.58,1716.84C1995.47,1716.85 1995.36,1716.85 1995.24,1716.85C1991.58,1716.85 1983.63,1713.17 1976.14,1709.49C1968.65,1705.8 1961.62,1702.12 1959.83,1702.12C1958.91,1702.12 1959.35,1703.08 1961.79,1705.48C1964.45,1708.11 1967.62,1711.99 1970.91,1716.49C1960.93,1713.18 1953,1709.9 1953,1709.9C1944.22,1710.53 1951.7,1790.65 1953,1799.71C1953.08,1800.27 1953.33,1800.8 1953.72,1801.3C1953.36,1803.26 1953.12,1805.31 1953,1807.44C1952.1,1823.3 1976.99,1853.98 2010.28,1861.69L2025.99,1804.08L2102.37,1818.59L2091.08,1853.25C2094.03,1853.35 2096.83,1853.4 2099.45,1853.4C2100.52,1853.4 2101.56,1853.39 2102.57,1853.38C2102.5,1856.82 2102.41,1859.7 2102.33,1861.91C2102.21,1865.22 2102.1,1867.03 2102.1,1867.03Z" style="fill:rgb(173,185,222);fill-rule:nonzero;"/>
        </g>
        <g transform="matrix(4.16667,0,0,4.16667,78.6163,-15.723)">
            <path d="M1953.72,1801.3C1953.33,1800.8 1953.08,1800.27 1953,1799.71C1951.7,1790.65 1944.22,1710.53 1953,1709.9C1953,1709.9 1960.93,1713.18 1970.91,1716.49C1982.64,1732.53 1995.88,1756.35 1992.82,1758.67C1989.96,1760.84 1970.88,1767.61 1960.17,1784.64C1959.19,1785.02 1958.35,1785.73 1957.83,1786.69C1957.31,1787.67 1957.19,1788.73 1957.4,1789.71C1955.76,1793.2 1954.48,1797.05 1953.72,1801.3Z" style="fill:rgb(187,194,227);fill-rule:nonzero;"/>
        </g>
        <g transform="matrix(4.16667,0,0,4.16667,78.6163,-15.723)">
            <path d="M1957.4,1789.71C1957.19,1788.73 1957.31,1787.67 1957.83,1786.69C1958.35,1785.73 1959.19,1785.02 1960.17,1784.64C1959.16,1786.24 1958.23,1787.93 1957.4,1789.71Z" style="fill:rgb(66,84,121);fill-rule:nonzero;"/>
        </g>
        <g transform="matrix(4.16667,0,0,4.16667,78.6163,-15.723)">
            <path d="M2129.34,1805.24C2125.62,1811.27 2118.44,1817.88 2107.53,1818.41C2087.97,1819.36 2033.71,1816.21 2028.35,1814.63C2026.38,1814.04 2025.86,1809.55 2025.99,1804.08C2026.21,1794.69 2028.35,1782.45 2028.35,1782.45C2028.35,1782.45 2128.98,1793.81 2131.82,1795.38C2133.07,1796.08 2132.29,1800.47 2129.34,1805.24Z" style="fill:white;fill-rule:nonzero;"/>
        </g>
        <g transform="matrix(4.16667,0,0,4.16667,78.6163,-15.723)">
            <path d="M2129.34,1805.24C2125.62,1811.27 2118.44,1817.88 2107.53,1818.41C2087.97,1819.36 2033.71,1816.21 2028.35,1814.63C2026.38,1814.04 2025.86,1809.55 2025.99,1804.08C2054.25,1809.02 2101.95,1815.34 2124.88,1806.76C2126.44,1806.18 2127.93,1805.67 2129.34,1805.24Z" style="fill:rgb(230,236,247);fill-rule:nonzero;"/>
        </g>
        <g transform="matrix(4.16667,0,0,4.16667,78.6163,-15.723)">
            <path d="M2016.68,1806.74C2011.95,1806.11 1998.38,1807.37 1992.07,1801.06C1985.76,1794.75 1979.14,1786.24 1979.46,1780.24C1979.64,1776.82 1976,1771.63 1972.85,1767.83C1977.97,1763.54 1984.36,1757.82 1987.6,1752.65C1989.44,1755.73 1992.02,1759.93 1993.36,1761.63C1995.6,1764.47 1997.75,1765.73 2001.54,1768.26C2005.32,1770.78 2011.95,1780.88 2013.21,1786.55C2014.47,1792.23 2021.41,1807.37 2016.68,1806.74Z" style="fill:rgb(247,158,134);fill-rule:nonzero;"/>
        </g>
        <g transform="matrix(4.16667,0,0,4.16667,78.6163,-15.723)">
            <path d="M1989.46,1745.23C1987.76,1739.93 1957.9,1710.86 1940.13,1692.79C1937.35,1689.96 1934.86,1687.41 1932.83,1685.25C1932.83,1685.25 1929.34,1678.93 1932.83,1675.59C1936.31,1672.24 1938.18,1670.87 1938.18,1670.87L1936.48,1664.68C1931.67,1647.91 1925.89,1630.63 1937.86,1598.38C1940.71,1590.72 1944.11,1582.93 1948.01,1575.32L1949.58,1561.39C1949.58,1561.39 1905.64,1648.7 1896.81,1670.15C1887.98,1691.6 1882.99,1699.17 1889.9,1705.48C1893.27,1708.56 1910.28,1725.73 1927.65,1741.86C1945.9,1758.82 1964.54,1774.63 1968.1,1771.73C1969.4,1770.67 1971.05,1769.34 1972.85,1767.83C1977.97,1763.54 1984.36,1757.82 1987.6,1752.65C1989.31,1749.92 1990.14,1747.36 1989.46,1745.23Z" style="fill:rgb(53,68,94);fill-rule:nonzero;"/>
        </g>
        <g transform="matrix(4.16667,0,0,4.16667,78.6163,-15.723)">
            <path d="M2023.29,1451.68C2022.79,1455.81 2017.53,1466 2013.8,1472.82C2011.97,1473.06 2010.38,1473.18 2009.53,1473C2006.48,1472.37 1999.64,1460.7 1994.28,1450.6C1992.36,1446.97 1991.04,1443.27 1990.28,1439.49C1990.28,1439.49 1995.68,1426.17 2006.27,1432.12C2016.85,1438.07 2019.76,1441.3 2018.69,1443.16C2017.63,1445.02 2024.06,1445.22 2023.29,1451.68Z" style="fill:rgb(243,122,111);fill-rule:nonzero;"/>
        </g>
        <g transform="matrix(4.16667,0,0,4.16667,78.6163,-15.723)">
            <path d="M2012.89,1464.06C2007.21,1467.43 2004.69,1467.64 2004.06,1472.47C2003.78,1474.63 2002.53,1478.15 2001.22,1481.41C1996.32,1477.44 1985.85,1474.93 1977.25,1475.23C1978.72,1472.41 1981.04,1467.62 1982.4,1463.01C1984.5,1455.86 1981.46,1457.77 1985.76,1448.08C1990.07,1438.38 1995.28,1430.83 2001.14,1432.31C2007,1433.78 2012.05,1436.3 2013.1,1440.19C2014.15,1444.08 2011.96,1455.19 2014.85,1451.95C2017.73,1448.71 2019.41,1445.76 2019.83,1449.34C2020.25,1452.91 2018.57,1460.7 2012.89,1464.06Z" style="fill:rgb(247,158,134);fill-rule:nonzero;"/>
        </g>
        <g transform="matrix(4.16667,0,0,4.16667,78.6163,-15.723)">
            <path d="M2182.24,1856.36L1933.07,1856.36C1930.87,1856.36 1929.07,1858.15 1929.07,1860.36L1929.07,1863.03C1929.07,1865.24 1930.87,1867.03 1933.07,1867.03L2182.24,1867.03C2184.45,1867.03 2186.24,1865.24 2186.24,1863.03L2186.24,1860.36C2186.24,1858.15 2184.45,1856.36 2182.24,1856.36Z" style="fill:rgb(53,68,94);fill-rule:nonzero;"/>
        </g>
        <g transform="matrix(4.16667,0,0,4.16667,78.6163,-15.723)">
            <path d="M1974.13,1840.96L1968.65,1840.96C1967,1840.96 1965.65,1842.31 1965.65,1843.96L1965.65,1853.36C1965.65,1855.02 1967,1856.36 1968.65,1856.36L1974.13,1856.36C1975.79,1856.36 1977.13,1855.02 1977.13,1853.36L1977.13,1843.96C1977.13,1842.31 1975.79,1840.96 1974.13,1840.96Z" style="fill:rgb(251,174,97);fill-rule:nonzero;"/>
        </g>
        <g transform="matrix(4.16667,0,0,4.16667,78.6163,-15.723)">
            <path d="M1989.82,1840.96L1984.35,1840.96C1982.69,1840.96 1981.35,1842.31 1981.35,1843.96L1981.35,1853.36C1981.35,1855.02 1982.69,1856.36 1984.35,1856.36L1989.82,1856.36C1991.48,1856.36 1992.82,1855.02 1992.82,1853.36L1992.82,1843.96C1992.82,1842.31 1991.48,1840.96 1989.82,1840.96Z" style="fill:rgb(242,131,86);fill-rule:nonzero;"/>
        </g>
        <g transform="matrix(4.16667,0,0,4.16667,78.6163,-15.723)">
            <path d="M2005.08,1840.96L1999.6,1840.96C1997.95,1840.96 1996.6,1842.31 1996.6,1843.96L1996.6,1853.36C1996.6,1855.02 1997.95,1856.36 1999.6,1856.36L2005.08,1856.36C2006.74,1856.36 2008.08,1855.02 2008.08,1853.36L2008.08,1843.96C2008.08,1842.31 2006.74,1840.96 2005.08,1840.96Z" style="fill:rgb(197,63,82);fill-rule:nonzero;"/>
        </g>
        <g transform="matrix(4.16667,0,0,4.16667,78.6163,-15.723)">
            <path d="M2020.34,1840.96L2014.86,1840.96C2013.2,1840.96 2011.86,1842.31 2011.86,1843.96L2011.86,1853.36C2011.86,1855.02 2013.2,1856.36 2014.86,1856.36L2020.34,1856.36C2021.99,1856.36 2023.34,1855.02 2023.34,1853.36L2023.34,1843.96C2023.34,1842.31 2021.99,1840.96 2020.34,1840.96Z" style="fill:rgb(197,63,82);fill-rule:nonzero;"/>
        </g>
        <g transform="matrix(4.16667,0,0,4.16667,78.6163,-15.723)">
            <path d="M2035.59,1840.96L2030.12,1840.96C2028.46,1840.96 2027.12,1842.31 2027.12,1843.96L2027.12,1853.36C2027.12,1855.02 2028.46,1856.36 2030.12,1856.36L2035.59,1856.36C2037.25,1856.36 2038.59,1855.02 2038.59,1853.36L2038.59,1843.96C2038.59,1842.31 2037.25,1840.96 2035.59,1840.96Z" style="fill:rgb(197,63,82);fill-rule:nonzero;"/>
        </g>
        <g transform="matrix(4.16667,0,0,4.16667,78.6163,-15.723)">
            <path d="M2153.01,1840.96L2067.43,1840.96C2065.78,1840.96 2064.43,1842.31 2064.43,1843.96L2064.43,1853.36C2064.43,1855.02 2065.78,1856.36 2067.43,1856.36L2153.01,1856.36C2154.67,1856.36 2156.01,1855.02 2156.01,1853.36L2156.01,1843.96C2156.01,1842.31 2154.67,1840.96 2153.01,1840.96Z" style="fill:rgb(197,63,82);fill-rule:nonzero;"/>
        </g>
        <g transform="matrix(4.16667,0,0,4.16667,78.6163,-15.723)">
            <path d="M1862.09,1817.8C1862.09,1817.8 1835.72,1755.14 1858.75,1726.61C1881.77,1698.08 1901.1,1706.87 1901.1,1706.87C1901.1,1706.87 1871.72,1711.37 1865.44,1731.93C1859.16,1752.5 1875.91,1785.67 1875.91,1785.67C1875.91,1785.67 1870.05,1763.8 1878.84,1747.48C1887.63,1731.15 1899.35,1721.94 1899.35,1721.94C1899.35,1721.94 1883.86,1733.4 1884.28,1750.9C1884.7,1768.41 1904.79,1815.4 1904.79,1815.4L1862.09,1817.8Z" style="fill:rgb(56,142,119);fill-rule:nonzero;"/>
        </g>
        <g transform="matrix(4.16667,0,0,4.16667,78.6163,-15.723)">
            <path d="M1847.02,1820.32C1847.02,1820.32 1775.44,1698.08 1801.81,1686.78C1828.19,1675.47 1891.4,1812.7 1891.4,1812.7L1847.02,1820.32Z" style="fill:rgb(251,174,97);fill-rule:nonzero;"/>
        </g>
        <g transform="matrix(4.16667,0,0,4.16667,78.6163,-15.723)">
            <path d="M1813.74,1734.78C1813.74,1734.78 1817.51,1709.38 1820.65,1713.36C1823.79,1717.33 1814.79,1753.91 1813.74,1734.78Z" style="fill:rgb(242,131,86);fill-rule:nonzero;"/>
        </g>
        <g transform="matrix(4.16667,0,0,4.16667,78.6163,-15.723)">
            <path d="M1826.11,1753.78C1826.11,1753.78 1829.88,1728.38 1833.02,1732.36C1836.16,1736.33 1827.16,1772.91 1826.11,1753.78Z" style="fill:rgb(242,131,86);fill-rule:nonzero;"/>
        </g>
        <g transform="matrix(4.16667,0,0,4.16667,78.6163,-15.723)">
            <path d="M1838.25,1772.75C1838.25,1772.75 1842.02,1747.35 1845.16,1751.33C1848.3,1755.3 1839.3,1791.88 1838.25,1772.75Z" style="fill:rgb(242,131,86);fill-rule:nonzero;"/>
        </g>
        <g transform="matrix(4.16667,0,0,4.16667,78.6163,-15.723)">
            <path d="M1849.34,1791.8C1849.34,1791.8 1853.11,1766.4 1856.25,1770.37C1859.39,1774.35 1850.39,1810.92 1849.34,1791.8Z" style="fill:rgb(242,131,86);fill-rule:nonzero;"/>
        </g>
        <g transform="matrix(4.16667,0,0,4.16667,78.6163,-15.723)">
            <path d="M1933.13,1788.38C1929.53,1788.38 1926.36,1790.22 1924.51,1793.01C1924.29,1792.94 1924.06,1792.87 1923.83,1792.8C1925.12,1790.99 1925.87,1788.85 1925.87,1786.55L1925.87,1786.54C1930.22,1784.25 1933.13,1780.02 1933.13,1775.18C1933.13,1769.26 1928.76,1764.24 1922.75,1762.58C1922.29,1756.59 1916.67,1751.85 1909.78,1751.85C1905.23,1751.85 1901.23,1753.92 1898.9,1757.05C1897.08,1756.32 1895.1,1755.92 1893.01,1755.92C1886.73,1755.92 1881.3,1759.58 1878.73,1764.88C1875.53,1766.34 1873.36,1769.09 1873.32,1772.25C1868.05,1773.75 1864.19,1778.58 1864.19,1784.32C1864.19,1787.02 1865.05,1789.52 1866.5,1791.56C1861.89,1793.42 1858.75,1797.09 1858.75,1801.31C1858.75,1807.26 1864.95,1812.1 1872.72,1812.33C1874.81,1814.25 1877.45,1815.4 1880.3,1815.4C1886.34,1815.4 1891.36,1810.31 1892.44,1803.57C1895.39,1806.03 1899.32,1807.53 1903.62,1807.53C1906.75,1807.53 1909.68,1806.74 1912.18,1805.36C1914.15,1806.7 1916.84,1807.53 1919.81,1807.53C1922.11,1807.53 1924.25,1807.03 1926.01,1806.19C1927.86,1807.96 1930.37,1809.05 1933.13,1809.05C1938.84,1809.05 1943.46,1804.42 1943.46,1798.71C1943.46,1793 1938.84,1788.38 1933.13,1788.38Z" style="fill:rgb(84,179,99);fill-rule:nonzero;"/>
        </g>
        <g transform="matrix(4.16667,0,0,4.16667,78.6163,-15.723)">
            <path d="M1883.89,1805.03C1886.68,1805.03 1889.12,1806.38 1890.55,1808.43C1890.72,1808.37 1890.9,1808.32 1891.08,1808.27C1890.08,1806.95 1889.5,1805.38 1889.5,1803.69C1886.14,1802 1883.89,1798.9 1883.89,1795.36C1883.89,1791.01 1887.27,1787.34 1891.91,1786.11C1892.27,1781.72 1896.61,1778.25 1901.93,1778.25C1905.45,1778.25 1908.54,1779.77 1910.34,1782.07C1911.74,1781.53 1913.28,1781.23 1914.89,1781.23C1919.74,1781.23 1923.94,1783.92 1925.92,1787.8C1928.39,1788.88 1930.07,1790.89 1930.11,1793.21C1934.17,1794.3 1937.16,1797.85 1937.16,1802.06C1937.16,1804.04 1936.49,1805.86 1935.38,1807.37C1938.94,1808.72 1941.36,1811.41 1941.36,1814.51C1941.36,1818.87 1936.57,1822.42 1930.56,1822.59C1928.95,1824 1926.92,1824.84 1924.71,1824.84C1920.04,1824.84 1916.17,1821.1 1915.33,1816.17C1913.05,1817.97 1910.02,1819.07 1906.69,1819.07C1904.27,1819.07 1902.01,1818.49 1900.08,1817.48C1898.55,1818.46 1896.48,1819.07 1894.18,1819.07C1892.4,1819.07 1890.76,1818.7 1889.4,1818.09C1887.96,1819.38 1886.03,1820.18 1883.89,1820.18C1879.48,1820.18 1875.91,1816.79 1875.91,1812.6C1875.91,1808.42 1879.48,1805.03 1883.89,1805.03Z" style="fill:rgb(125,198,131);fill-rule:nonzero;"/>
        </g>
        <g transform="matrix(4.16667,0,0,4.16667,78.6163,-15.723)">
            <path d="M1871.69,1807.34C1871.69,1807.34 1862.93,1785.68 1828.19,1769.09C1793.44,1752.5 1782.14,1766.73 1782.14,1766.73C1782.14,1766.73 1805.23,1758.77 1821.31,1772.17C1837.4,1785.57 1847.44,1795.52 1847.44,1795.52C1847.44,1795.52 1820.99,1782.1 1807.64,1783.63C1794.28,1785.15 1786.11,1797.86 1786.11,1797.86C1786.11,1797.86 1805.2,1784.54 1826.11,1795.52C1847.02,1806.5 1843.69,1814.49 1843.69,1814.49L1871.69,1807.34Z" style="fill:rgb(56,142,119);fill-rule:nonzero;"/>
        </g>
        <g transform="matrix(4.16667,0,0,4.16667,78.6163,-15.723)">
            <path d="M1948.32,1808.63L1929.89,1858.92L1928.43,1862.91C1927.52,1865.38 1925.17,1867.03 1922.53,1867.03L1871.69,1866.99L1820.85,1867.03C1818.22,1867.03 1815.86,1865.38 1814.96,1862.91L1795.07,1808.63C1793.8,1805.17 1795.77,1801.52 1799.05,1800.48C1799.64,1800.29 1800.29,1800.19 1800.96,1800.19L1942.42,1800.19C1946.79,1800.19 1949.82,1804.53 1948.32,1808.63Z" style="fill:rgb(251,218,122);fill-rule:nonzero;"/>
        </g>
        <g transform="matrix(4.16667,0,0,4.16667,78.6163,-15.723)">
            <path d="M1929.89,1858.92L1928.43,1862.91C1927.52,1865.38 1925.17,1867.03 1922.53,1867.03L1871.69,1866.99L1820.85,1867.03C1818.22,1867.03 1815.86,1865.38 1814.96,1862.91L1795.07,1808.63C1793.8,1805.17 1795.77,1801.52 1799.05,1800.48C1808.16,1823.08 1836.27,1858.88 1922.93,1858.88C1925.34,1858.88 1927.66,1858.89 1929.89,1858.92Z" style="fill:rgb(251,174,97);fill-rule:nonzero;"/>
        </g>
        <g transform="matrix(4.16667,0,0,4.16667,78.6163,-15.723)">
            <path d="M1538.13,1254.84C1538.13,1267.35 1526.1,1277.49 1511.25,1277.49C1496.41,1277.49 1484.38,1267.35 1484.38,1254.84C1484.38,1242.34 1496.41,1232.2 1511.25,1232.2C1526.1,1232.2 1538.13,1242.34 1538.13,1254.84Z" style="fill:rgb(135,157,198);fill-rule:nonzero;"/>
        </g>
        <g transform="matrix(4.16667,0,0,4.16667,78.6163,-15.723)">
            <path d="M1588.19,1271.05C1591.51,1271.05 1593.92,1267.89 1593.06,1264.68C1584.38,1232.4 1550.8,1208.34 1510.7,1208.34C1470.6,1208.34 1437.03,1232.4 1428.35,1264.68C1427.49,1267.89 1429.9,1271.05 1433.22,1271.05L1588.19,1271.05Z" style="fill:rgb(178,192,213);fill-rule:nonzero;"/>
        </g>
        <g transform="matrix(4.16667,0,0,4.16667,78.6163,-15.723)">
            <path d="M1528.14,1213.38L1494.37,1213.38C1490.5,1213.38 1487.37,1210.25 1487.37,1206.38L1487.37,1203.77C1487.37,1199.91 1490.5,1196.77 1494.37,1196.77L1528.14,1196.77C1532.01,1196.77 1535.14,1199.91 1535.14,1203.77L1535.14,1206.38C1535.14,1210.25 1532.01,1213.38 1528.14,1213.38Z" style="fill:rgb(230,236,247);fill-rule:nonzero;"/>
        </g>
        <g transform="matrix(4.16667,0,0,4.16667,78.6163,-15.723)">
            <rect x="1508.45" y="1177.92" width="5.23" height="18.85" style="fill:rgb(178,192,213);fill-rule:nonzero;"/>
        </g>
        <g transform="matrix(4.16667,0,0,4.16667,78.6163,-15.723)">
            <path d="M1555.58,1177.92L1467.86,1177.92C1466.37,1177.92 1465.16,1176.71 1465.16,1175.22C1465.16,1173.72 1466.37,1172.51 1467.86,1172.51L1555.58,1172.51C1557.07,1172.51 1558.28,1173.72 1558.28,1175.22C1558.28,1176.71 1557.07,1177.92 1555.58,1177.92Z" style="fill:rgb(230,236,247);fill-rule:nonzero;"/>
        </g>
        <g transform="matrix(4.16667,0,0,4.16667,78.6163,-15.723)">
            <path d="M2182.41,1576.3C2182.01,1576.84 2181.55,1577.35 2181.03,1577.83L2178.52,1575.14C2180.78,1573.02 2181.41,1570.12 2180.38,1566.51C2178.38,1559.53 2170.7,1552.17 2166.05,1551.26C2164.38,1550.93 2159.96,1551.71 2154.92,1565.93C2154.64,1566.73 2154.57,1566.92 2154.37,1567.19L2151.42,1564.97C2151.3,1565.14 2151.24,1565.27 2151.23,1565.3C2151.27,1565.2 2151.35,1564.99 2151.45,1564.7C2155.86,1552.25 2161,1546.52 2166.75,1547.64C2172.54,1548.77 2181.48,1556.99 2183.92,1565.5C2185.12,1569.7 2184.59,1573.39 2182.41,1576.3Z" style="fill:rgb(178,192,213);fill-rule:nonzero;"/>
        </g>
        <g transform="matrix(4.16667,0,0,4.16667,78.6163,-15.723)">
            <path d="M2178.67,1595.19L2174.35,1600.95C2168.71,1608.46 2158.05,1609.97 2150.54,1604.33L2132.01,1590.4C2128.92,1588.08 2128.29,1583.69 2130.61,1580.6L2146.95,1558.85C2149.28,1555.76 2153.66,1555.14 2156.75,1557.46L2175.29,1571.39C2182.8,1577.03 2184.31,1587.69 2178.67,1595.19Z" style="fill:rgb(178,192,213);fill-rule:nonzero;"/>
        </g>
        <g transform="matrix(4.16667,0,0,4.16667,78.6163,-15.723)">
            <path d="M1511.49,1865.25C1510.91,1866.3 1509.84,1867.03 1508.58,1867.03L1482.18,1867.03C1480.14,1867.03 1478.57,1865.12 1478.87,1862.99L1483.3,1831.81C1483.55,1830.08 1484.95,1828.81 1486.6,1828.81L1504.15,1828.81C1505.75,1828.81 1507.12,1830 1507.43,1831.64L1507.45,1831.81L1511.88,1862.99C1512,1863.81 1511.84,1864.59 1511.49,1865.25Z" style="fill:white;fill-rule:nonzero;"/>
        </g>
        <g transform="matrix(4.16667,0,0,4.16667,78.6163,-15.723)">
            <path d="M1499.28,1828.81L1491.48,1828.81C1490.02,1828.81 1488.84,1827.63 1488.84,1826.17C1488.84,1824.72 1490.02,1823.54 1491.48,1823.54L1499.28,1823.54C1500.74,1823.54 1501.92,1824.72 1501.92,1826.17C1501.92,1827.63 1500.74,1828.81 1499.28,1828.81Z" style="fill:rgb(170,165,196);fill-rule:nonzero;"/>
        </g>
        <g transform="matrix(4.16667,0,0,4.16667,78.6163,-15.723)">
            <path d="M1483.73,1861.96L1483.54,1861.95C1482.85,1861.84 1482.38,1861.21 1482.49,1860.54L1486.67,1834.21C1486.77,1833.54 1487.41,1833.08 1488.1,1833.18C1488.78,1833.29 1489.25,1833.92 1489.14,1834.59L1484.97,1860.92C1484.87,1861.53 1484.34,1861.96 1483.73,1861.96Z" style="fill:rgb(221,216,236);fill-rule:nonzero;"/>
        </g>
        <g transform="matrix(4.16667,0,0,4.16667,78.6163,-15.723)">
            <path d="M1495.38,1861.96C1494.69,1861.96 1494.13,1861.41 1494.13,1860.73L1494.13,1834.4C1494.13,1833.72 1494.69,1833.17 1495.38,1833.17C1496.07,1833.17 1496.63,1833.72 1496.63,1834.4L1496.63,1860.73C1496.63,1861.41 1496.07,1861.96 1495.38,1861.96Z" style="fill:rgb(221,216,236);fill-rule:nonzero;"/>
        </g>
        <g transform="matrix(4.16667,0,0,4.16667,78.6163,-15.723)">
            <path d="M1507.38,1861.96C1506.79,1861.96 1506.26,1861.55 1506.15,1860.96L1501.1,1834.63C1500.98,1833.96 1501.42,1833.32 1502.1,1833.19C1502.78,1833.06 1503.44,1833.5 1503.57,1834.17L1508.61,1860.5C1508.74,1861.17 1508.29,1861.81 1507.61,1861.94L1507.38,1861.96Z" style="fill:rgb(221,216,236);fill-rule:nonzero;"/>
        </g>
        <g transform="matrix(4.16667,0,0,4.16667,78.6163,-15.723)">
            <path d="M1766.11,1865.25C1765.54,1866.3 1764.46,1867.03 1763.2,1867.03L1736.8,1867.03C1734.76,1867.03 1733.2,1865.12 1733.5,1862.99L1737.92,1831.81C1738.17,1830.08 1739.57,1828.81 1741.23,1828.81L1758.77,1828.81C1760.37,1828.81 1761.74,1830 1762.05,1831.64L1762.08,1831.81L1766.5,1862.99C1766.62,1863.81 1766.46,1864.59 1766.11,1865.25Z" style="fill:white;fill-rule:nonzero;"/>
        </g>
        <g transform="matrix(4.16667,0,0,4.16667,78.6163,-15.723)">
            <path d="M1753.9,1828.81L1746.1,1828.81C1744.64,1828.81 1743.46,1827.63 1743.46,1826.17C1743.46,1824.72 1744.64,1823.54 1746.1,1823.54L1753.9,1823.54C1755.36,1823.54 1756.54,1824.72 1756.54,1826.17C1756.54,1827.63 1755.36,1828.81 1753.9,1828.81Z" style="fill:rgb(170,165,196);fill-rule:nonzero;"/>
        </g>
        <g transform="matrix(4.16667,0,0,4.16667,78.6163,-15.723)">
            <path d="M1738.35,1861.96L1738.16,1861.95C1737.47,1861.84 1737.01,1861.21 1737.11,1860.54L1741.29,1834.21C1741.39,1833.54 1742.03,1833.08 1742.72,1833.18C1743.4,1833.29 1743.87,1833.92 1743.76,1834.59L1739.59,1860.92C1739.49,1861.53 1738.96,1861.96 1738.35,1861.96Z" style="fill:rgb(221,216,236);fill-rule:nonzero;"/>
        </g>
        <g transform="matrix(4.16667,0,0,4.16667,78.6163,-15.723)">
            <path d="M1750,1861.96C1749.31,1861.96 1748.75,1861.41 1748.75,1860.73L1748.75,1834.4C1748.75,1833.72 1749.31,1833.17 1750,1833.17C1750.69,1833.17 1751.25,1833.72 1751.25,1834.4L1751.25,1860.73C1751.25,1861.41 1750.69,1861.96 1750,1861.96Z" style="fill:rgb(221,216,236);fill-rule:nonzero;"/>
        </g>
        <g transform="matrix(4.16667,0,0,4.16667,78.6163,-15.723)">
            <path d="M1762,1861.96C1761.41,1861.96 1760.88,1861.55 1760.77,1860.96L1755.73,1834.63C1755.6,1833.96 1756.04,1833.32 1756.72,1833.19C1757.41,1833.06 1758.06,1833.5 1758.19,1834.17L1763.23,1860.5C1763.36,1861.17 1762.91,1861.81 1762.23,1861.94L1762,1861.96Z" style="fill:rgb(221,216,236);fill-rule:nonzero;"/>
        </g>
    </g>
</svg>
